<svg id="Layer_1" data-name="Layer 1" xmlns="http://www.w3.org/2000/svg" xmlns:xlink="http://www.w3.org/1999/xlink" viewBox="0 0 207.64 206.51"><defs><style>.cls-1{fill:#f6efe9;}.cls-2{clip-path:url(#clip-path);}.cls-3{fill:#f9bf99;}.cls-4{fill:#c07e5e;}.cls-5{fill:#ba5630;}.cls-6{fill:#9c3a23;}.cls-7{fill:#0a0a10;}.cls-8{fill:#f4efe9;}</style><clipPath id="clip-path" transform="translate(-193.82 -300.89)"><circle class="cls-1" cx="297.64" cy="402.93" r="102.04"/></clipPath></defs><circle class="cls-1" cx="103.82" cy="102.04" r="102.04"/><g class="cls-2"><path class="cls-3" d="M348.27,379.86c-.3-.47-.67-.9-1-1.37-.21-.31-.3-.53-.66-.69a2.84,2.84,0,0,0-1.11-.21,6.62,6.62,0,0,0-3.63,1c-.23.15-1.08.81-1.25.52,0-.05,0-.19,0-.25v-.76l0-4.43.06-6.5,0-2.43.09-2.77c0-1.6,0-3.21,0-4.82l0-4.09,0-5c0-.65,0-1.31,0-2l-2.31-.16c-.22-.52-.46-1-.72-1.54a24.94,24.94,0,0,0-9.9-9.74A45.58,45.58,0,0,0,314.77,330a79.75,79.75,0,0,0-35.81.74c-5.74,1.46-11.47,3.65-15.78,7.72a29.33,29.33,0,0,0-7.27,11.93,28,28,0,0,0-2,9.44l.09,7.37.16,12.1s-4.78-3.93-6.1-1.68-2.63,2.63-2.06,5.82,3.94,10.32,4.5,12.38a100.08,100.08,0,0,1,2.25,9.76c0,1.13,1.69,3.57,1.69,3.57s0,.37,1.69.94a46.11,46.11,0,0,0,5.07,1.12l1.5,5.82,5.82,5.63,1.13,3.19,1.12,22.9s-5.44,7.13-7.32,8.26-10,7.13-12.2,7.69,23.11,18.4,46.14,18.12c23,.28,48.31-17.57,46.13-18.12s-10.32-6.57-12.2-7.69-7.32-8.26-7.32-8.26l1.13-22.9,1.12-3.19,5.82-5.63,1.5-5.82a46.11,46.11,0,0,0,5.07-1.12c1.69-.57,1.69-.94,1.69-.94s1.69-2.44,1.69-3.57a100.08,100.08,0,0,1,2.25-9.76c.57-2.06,3.94-9.19,4.51-12.38A4.83,4.83,0,0,0,348.27,379.86Z" transform="translate(-193.82 -300.89)"/><path class="cls-4" d="M293.7,403.46s1.43-17.2.18-19.88C293.88,383.58,292.55,398.65,293.7,403.46Z" transform="translate(-193.82 -300.89)"/><path class="cls-4" d="M246.84,384.29c.53-2.2,2.62-4.38,4.62-2.12a6.22,6.22,0,0,1,1.19,2.4c1.48,5,.82,10.45,2.59,15.34,1.24,3.4,3.57,6.28,5.86,9.09-1-4.5-2.82-8.74-3.7-13.31-.67-3.54-1.5-7-1.86-10.61a17,17,0,0,0-.95-5.06,2.53,2.53,0,0,0-.41-.71,3.19,3.19,0,0,0-.57-.46,6.45,6.45,0,0,0-3-1.34,4.2,4.2,0,0,0-3.86,2.78,6.55,6.55,0,0,0,0,5A5.11,5.11,0,0,1,246.84,384.29Z" transform="translate(-193.82 -300.89)"/><path class="cls-4" d="M348.27,384.29c-.53-2.2-2.62-4.38-4.62-2.12a6.22,6.22,0,0,0-1.19,2.4c-1.48,5-.82,10.45-2.59,15.34-1.24,3.4-3.57,6.28-5.86,9.09,1-4.5,2.82-8.74,3.7-13.31.68-3.54,1.5-7,1.86-10.61a17.3,17.3,0,0,1,.95-5.06,2.53,2.53,0,0,1,.41-.71,3.19,3.19,0,0,1,.57-.46,6.45,6.45,0,0,1,3-1.34,4.2,4.2,0,0,1,3.86,2.78,6.55,6.55,0,0,1,0,5A5.11,5.11,0,0,0,348.27,384.29Z" transform="translate(-193.82 -300.89)"/><polygon class="cls-4" points="139.54 70.09 128.26 74.27 108.92 78.32 109.4 73.97 130.77 72 139.54 70.09"/><path class="cls-4" d="M292.06,376.61l-.19-1.75-21.37-2-8.15-1.58L273,375.16l14.71,3.08c1.34,1.61,4.88,6.05,4.88,6.05l.94,10.44.87-9.38A69.06,69.06,0,0,0,292.06,376.61Z" transform="translate(-193.82 -300.89)"/><path class="cls-4" d="M326,423.88s-7.14,37.68-37.33,33.52c0,0-13.31-2.5-18.3-18.31L269.13,424s11.41,10.69,13.07,12.12,9.51,7,14.86,7.37a34.24,34.24,0,0,0,20.09-11.65Z" transform="translate(-193.82 -300.89)"/><polygon class="cls-4" points="104.13 132.31 102.14 129.1 104.45 129.52 105.79 129.19 104.13 132.31"/><path class="cls-4" d="M303.6,412.38a7.91,7.91,0,0,1-2.64-.1l-3.14.41-3.14-.41a7.91,7.91,0,0,1-2.64.1c3.46,2.87,5.53,2.5,5.78,2.44S300.14,415.25,303.6,412.38Z" transform="translate(-193.82 -300.89)"/><path class="cls-5" d="M401.29,506.43s-4.11-19.59-13.59-23.69c0,0-18.62-7.31-22.74-8.38,0,0-5.82-2.22-10.12-4.28a11.42,11.42,0,0,1-4.28-3.15c-.78-1-4.75-4.34-4.75-4.34s-25.78,18-48.69,17.29c0,0-23.27.54-49.05-17.47l-4.83,3.92.9,1.25S232,474.71,220,477.39c0,0-18.26,6.24-20.58,10.87l-5.21,18.36Z" transform="translate(-193.82 -300.89)"/><path class="cls-6" d="M267,502.5a58.32,58.32,0,0,1-19.11-3.64c-3.79-1.52-7.5-3.77-9.52-7.32a15.92,15.92,0,0,1-1.86-7.55c-.14-6.59,2.68-13.35,8-17.3,8.09,6.56,17.71,10.94,27.42,14.68,6.43,2.48,13,4.72,19.92,5.22,7.37.53,14.73-1,21.93-2.66,6.42-1.51,12.89-3.22,18.67-6.42a100.31,100.31,0,0,0,10.11-6.86,40.74,40.74,0,0,1,5.06-3.41c1.79-.9,1.06.52.29,1.56-2.07,2.81-5.09,5.28-7.7,7.59a101.58,101.58,0,0,1-8.72,6.9,106,106,0,0,1-40,17.26A100.19,100.19,0,0,1,267,502.5Z" transform="translate(-193.82 -300.89)"/><path class="cls-6" d="M369.92,477.07c2.92,3,7,4.65,11,6.09a16.93,16.93,0,0,0,2.3.7c2.69.56,5.53-.18,8.21.43a1.34,1.34,0,0,1,1,.65,90.09,90.09,0,0,0-12.77-6.58q-3.33-1.38-6.74-2.49c-2-.66-4.6-1.79-6.72-1.81A13.41,13.41,0,0,1,369.92,477.07Z" transform="translate(-193.82 -300.89)"/><path class="cls-6" d="M227.33,477.07c-2.93,3-7,4.65-11,6.09a16.79,16.79,0,0,1-2.29.7c-2.69.56-5.54-.18-8.22.43a1.32,1.32,0,0,0-1,.65,89.55,89.55,0,0,1,12.77-6.58q3.31-1.38,6.74-2.49c2-.66,4.6-1.79,6.72-1.81A13.27,13.27,0,0,0,227.33,477.07Z" transform="translate(-193.82 -300.89)"/><path class="cls-7" d="M316.73,484.08s10.82-3.81,15-9.39c0,0-34.83,17.83-72.75-2.26l-12.72-8.08,2.5-2.14s23.77,18.18,50,17.71c0,0,28.68-2,47-17.33l5.69,4S336.58,478.85,316.73,484.08Z" transform="translate(-193.82 -300.89)"/><path class="cls-7" d="M293.67,476.12a9.08,9.08,0,0,0,9.92-.21.33.33,0,0,1,.45.07.32.32,0,0,1-.07.46l-.08,0a15.74,15.74,0,0,1-10.49.22.32.32,0,1,1,.19-.62Z" transform="translate(-193.82 -300.89)"/><path class="cls-7" d="M314.71,473.92c1-.12,2-.19,2.93-.25s1.95-.08,2.93-.09c1.95,0,3.9,0,5.85.14a.33.33,0,0,1,.3.35.31.31,0,0,1-.3.29c-1.95.15-3.9.16-5.85.15-1,0-2-.05-2.93-.1s-1.95-.12-2.93-.25a.11.11,0,0,1-.1-.13A.12.12,0,0,1,314.71,473.92Z" transform="translate(-193.82 -300.89)"/><path class="cls-7" d="M283.88,474.16c-1.07.13-2.14.19-3.2.25s-2.14.08-3.21.1c-2.14,0-4.27,0-6.41-.15a.32.32,0,0,1-.3-.34.32.32,0,0,1,.3-.3c2.14-.15,4.27-.16,6.41-.14q1.61,0,3.21.09c1.06.06,2.13.13,3.2.25a.12.12,0,0,1,0,.24Z" transform="translate(-193.82 -300.89)"/><path class="cls-7" d="M293.87,424.69l6.59-1.14-.26.08,2.11-.63a.22.22,0,0,1,.21.37l-1.66,1.46a.3.3,0,0,1-.2.08h-.06l-6.69.19a.19.19,0,0,1-.21-.2A.2.2,0,0,1,293.87,424.69Z" transform="translate(-193.82 -300.89)"/><path class="cls-7" d="M254,379.8c-1-.39-1.8-.85-2.64-1.11a4,4,0,0,0-2.45,0,2.82,2.82,0,0,0-1.61,1.68,6.93,6.93,0,0,0-.55,2.61,14.5,14.5,0,0,0,1.19,5.45l2.15,5.45a49.19,49.19,0,0,1,1.87,5.61c.25,1,.46,1.93.62,2.92s.26,1.94.44,2.87a8,8,0,0,0,.92,2.6,4.91,4.91,0,0,0,1.94,1.81,12.73,12.73,0,0,0,5.5,1.15l0,.81a13.68,13.68,0,0,1-5.88-1.17,6,6,0,0,1-2.31-2.12,9,9,0,0,1-1.07-2.88c-.21-1-.33-2-.49-2.91a27.13,27.13,0,0,0-.63-2.81,49.17,49.17,0,0,0-1.9-5.47l-2.22-5.43a15.77,15.77,0,0,1-1.35-5.91,8.12,8.12,0,0,1,.62-3.09,5.08,5.08,0,0,1,.87-1.43,3.72,3.72,0,0,1,1.46-1,5.21,5.21,0,0,1,3.31,0c1,.3,1.92.78,2.77,1.11Z" transform="translate(-193.82 -300.89)"/><path class="cls-7" d="M248.68,384.22a3.56,3.56,0,0,1-.59-2.54,1.77,1.77,0,0,1,.79-1.14,3,3,0,0,1,1.29-.46,4.82,4.82,0,0,1,2.65.43,12.22,12.22,0,0,1,2.25,1.38.4.4,0,0,1,.08.57.39.39,0,0,1-.56.08h0a11,11,0,0,0-2-1.43,4.4,4.4,0,0,0-2.32-.53,1.87,1.87,0,0,0-1.81,1.2,3.29,3.29,0,0,0,.43,2.36.08.08,0,0,1,0,.12A.1.1,0,0,1,248.68,384.22Z" transform="translate(-193.82 -300.89)"/><path class="cls-7" d="M256.57,389.36a4.2,4.2,0,0,0-1.5,2.91,4.73,4.73,0,0,0,1,3.11c.64.94,1.45,1.79,2.12,2.8a9.87,9.87,0,0,1,1.41,3.34.41.41,0,1,1-.79.18v0a9.1,9.1,0,0,0-1.19-3.13c-.58-1-1.36-1.85-2-2.86a5.25,5.25,0,0,1-1-3.46,4.6,4.6,0,0,1,1.74-3.11.17.17,0,0,1,.22,0A.17.17,0,0,1,256.57,389.36Z" transform="translate(-193.82 -300.89)"/><path class="cls-7" d="M269.16,423a35.38,35.38,0,0,1,1.91,9.83q.42,4.94.54,9.9c.07,3.3.11,6.62-.06,9.93a90.92,90.92,0,0,1-.92,9.88.21.21,0,0,1-.24.17.2.2,0,0,1-.17-.21c.12-3.29.18-6.58.14-9.86s-.14-6.57-.31-9.85l-.59-9.85a49.09,49.09,0,0,0-1.2-9.65.47.47,0,0,1,.9-.29Z" transform="translate(-193.82 -300.89)"/><path class="cls-7" d="M251.75,463.49a45.83,45.83,0,0,0,5.56-2.79,38,38,0,0,0,5.06-3.55,38.38,38.38,0,0,0,4.47-4.27,44.44,44.44,0,0,0,3.8-4.92l.63.35a28.13,28.13,0,0,1-3.44,5.41,31.61,31.61,0,0,1-9.89,8.11,27,27,0,0,1-6,2.28Z" transform="translate(-193.82 -300.89)"/><path class="cls-7" d="M288.41,443.18a38.08,38.08,0,0,0,2.62,6.37,38.77,38.77,0,0,0,3.75,5.77.22.22,0,0,1,0,.31.23.23,0,0,1-.3,0,27.46,27.46,0,0,1-4-5.76,28,28,0,0,1-2.44-6.56.19.19,0,0,1,.15-.23A.2.2,0,0,1,288.41,443.18Z" transform="translate(-193.82 -300.89)"/><path class="cls-7" d="M280.66,383.22a19,19,0,0,0-3.83-1.15,7.58,7.58,0,0,0-2.91,6.27c0,3.91,2.46,7.09,5.48,7.09s5.49-3.18,5.49-7.09a9.08,9.08,0,0,0-.93-4C282.85,383.94,281.78,383.61,280.66,383.22Z" transform="translate(-193.82 -300.89)"/><path class="cls-7" d="M269.64,381.28l.25,0,.31,0,.62,0c.4,0,.81,0,1.21,0,.81,0,1.61.12,2.41.23a34.17,34.17,0,0,1,4.69,1.05c1.54.42,3,1,4.53,1.54l2.21.91,2.17,1s0,.05,0,.08a.05.05,0,0,1-.07,0l-2.2-.92-2.23-.83c-1.51-.51-3-1-4.55-1.38a35.35,35.35,0,0,0-4.66-.86,20.45,20.45,0,0,0-2.35-.15c-.39,0-.78,0-1.16,0l-.58.05-.63.08a.32.32,0,0,1-.37-.28.34.34,0,0,1,.13-.32Z" transform="translate(-193.82 -300.89)"/><path class="cls-7" d="M272.14,393.7a14.34,14.34,0,0,0,3,1,21.51,21.51,0,0,0,3.22.44,25.34,25.34,0,0,0,3.26,0,32.48,32.48,0,0,0,3.25-.43.07.07,0,0,1,.08.05.08.08,0,0,1-.05.08,30.32,30.32,0,0,1-3.25.58,24.4,24.4,0,0,1-3.31.19,21.78,21.78,0,0,1-3.32-.29,13.86,13.86,0,0,1-3.25-.91.38.38,0,0,1-.21-.5.39.39,0,0,1,.51-.21h0Z" transform="translate(-193.82 -300.89)"/><path class="cls-7" d="M273.73,378a18.14,18.14,0,0,1,6.39.65,29.39,29.39,0,0,1,5.95,2.43.2.2,0,0,1,.09.29.21.21,0,0,1-.29.09h0A29,29,0,0,0,280,379a17.86,17.86,0,0,0-6.25-.67.18.18,0,0,1-.2-.17A.19.19,0,0,1,273.73,378Z" transform="translate(-193.82 -300.89)"/><path class="cls-7" d="M294,411.38a9.18,9.18,0,0,0,1.76.72,6,6,0,0,0,1.81.26,5,5,0,0,0,1.76-.27,8.49,8.49,0,0,0,1.65-.77h0a.32.32,0,0,1,.43.13.32.32,0,0,1-.08.39,5.32,5.32,0,0,1-1.76,1.05,4.82,4.82,0,0,1-2.06.29,5.65,5.65,0,0,1-2-.53,5.09,5.09,0,0,1-1.62-1.17.06.06,0,0,1,0-.08A.06.06,0,0,1,294,411.38Z" transform="translate(-193.82 -300.89)"/><path class="cls-7" d="M291.56,407.18a16,16,0,0,0-.93,2.07c-.14.37-.28.69-.15,1a4.1,4.1,0,0,0,.62.87,3.05,3.05,0,0,0,1.72,1.11,4.7,4.7,0,0,0,2.08-.31.41.41,0,0,1,.51.27.41.41,0,0,1-.27.51h0a5.42,5.42,0,0,1-2.42.16,3.64,3.64,0,0,1-2-1.44,4.09,4.09,0,0,1-.62-1,1.06,1.06,0,0,1,0-.68,5.69,5.69,0,0,1,.23-.55,15.86,15.86,0,0,1,1.09-2,.08.08,0,0,1,.12,0A.08.08,0,0,1,291.56,407.18Z" transform="translate(-193.82 -300.89)"/><path class="cls-7" d="M294.46,385.45c.18,1.52.25,3,.31,4.56s.05,3,0,4.56-.1,3-.25,4.56a34.65,34.65,0,0,1-.69,4.53.09.09,0,0,1-.12.07.1.1,0,0,1-.08-.11c.11-1.51.17-3,.22-4.53s.11-3,.12-4.54l.11-4.54c0-1.52.09-3,.18-4.55a.11.11,0,0,1,.1-.09S294.46,385.41,294.46,385.45Z" transform="translate(-193.82 -300.89)"/><path class="cls-7" d="M251.71,385.49a1.47,1.47,0,0,1,0-.95,1.23,1.23,0,0,1,.78-.6,2.64,2.64,0,0,1,1.89.22,2.73,2.73,0,0,1,1.32,1.44c.25.59.41,1.14.62,1.71a.4.4,0,1,1-.76.28.06.06,0,0,1,0,0h0c-.15-.57-.28-1.18-.45-1.71a2.21,2.21,0,0,0-.94-1.24,2.26,2.26,0,0,0-1.58-.33.93.93,0,0,0-.64.39,1.29,1.29,0,0,0-.06.81.08.08,0,0,1-.07.1A.09.09,0,0,1,251.71,385.49Z" transform="translate(-193.82 -300.89)"/><path class="cls-7" d="M297.43,327.89a.45.45,0,0,1-.12-.29l.41.4h-.5l.41-.4h0V328h-.4a59.59,59.59,0,0,0-19.72,3.11,39.9,39.9,0,0,0-8.86,4.55,32.82,32.82,0,0,0-7.14,6.88,39.44,39.44,0,0,0-7.34,18.29,55.25,55.25,0,0,0-.51,10,47.22,47.22,0,0,0,.44,4.94l1.12,4.91c1.51,6.55,3,13.13,4.39,19.7l2.18,9.85c.36,1.63.71,3.33,1.09,4.89a9,9,0,0,0,2.46,4c4.72,4.79,9.48,9.55,14.41,14.11q1.85,1.71,3.75,3.34A27.07,27.07,0,0,0,296.77,443h1.4a29.71,29.71,0,0,0,9.28-3.49,31.44,31.44,0,0,0,4-2.95c1.27-1.09,2.53-2.2,3.76-3.34,4.93-4.56,9.7-9.31,14.39-14.12a8.93,8.93,0,0,0,2.44-4c.38-1.57.72-3.27,1.08-4.9l2.12-9.86,4.27-19.73,1.07-4.91a46,46,0,0,0,.41-4.9,54.62,54.62,0,0,0-.57-9.9,39.85,39.85,0,0,0-7.32-18.08,34.23,34.23,0,0,0-7-6.85,41.65,41.65,0,0,0-8.74-4.6,46,46,0,0,0-4.76-1.47,45.15,45.15,0,0,0-4.89-1c-.82-.17-1.65-.25-2.48-.34l-2.49-.27C301,328.15,299.15,328,297.43,327.89Zm.57-.57c1.64,0,3.17-.06,4.79,0l2.53.22c.85.07,1.69.14,2.53.29l2.52.39c.84.12,1.66.36,2.49.53a45.07,45.07,0,0,1,4.93,1.37,41.43,41.43,0,0,1,9.21,4.52,33.34,33.34,0,0,1,7.53,7,36.76,36.76,0,0,1,5.11,9,45.76,45.76,0,0,1,2.62,9.95,56.51,56.51,0,0,1,.53,10.23,45.38,45.38,0,0,1-.46,5.15l-1.13,4.94-4.57,19.69-2.29,9.83c-.39,1.66-.73,3.25-1.17,5a10.09,10.09,0,0,1-2.79,4.47c-4.78,4.75-9.57,9.49-14.57,14-1.25,1.14-2.52,2.24-3.82,3.33a30.9,30.9,0,0,1-4.13,3,30.5,30.5,0,0,1-9.53,3.6h-1.72a30.78,30.78,0,0,1-9.54-3.59,31.73,31.73,0,0,1-4.14-3c-1.29-1.08-2.57-2.19-3.81-3.33-5-4.53-9.81-9.25-14.57-14a10.12,10.12,0,0,1-2.76-4.48c-.43-1.7-.77-3.3-1.15-5l-2.25-9.85c-1.5-6.57-3-13.13-4.43-19.71L252.87,376a46.93,46.93,0,0,1-.43-5.12,56.7,56.7,0,0,1,.59-10.17A40.29,40.29,0,0,1,260.74,342a34.24,34.24,0,0,1,7.41-7,42.09,42.09,0,0,1,9.09-4.57,63.75,63.75,0,0,1,20-3.18l-.4.4h0v-.42h.9l.4.4A.4.4,0,0,0,298,327.32Z" transform="translate(-193.82 -300.89)"/><path class="cls-7" d="M340.49,378.6c.77-.27,1.64-.85,2.67-1.19a5.13,5.13,0,0,1,3.33,0,3.67,3.67,0,0,1,1.47,1,4.93,4.93,0,0,1,.89,1.43,8.13,8.13,0,0,1,.63,3.09,15.63,15.63,0,0,1-1.34,5.92l-2.22,5.43a51.53,51.53,0,0,0-1.91,5.48c-.25.92-.47,1.86-.63,2.81s-.28,1.92-.49,2.91a8.91,8.91,0,0,1-1.07,2.88,5.79,5.79,0,0,1-2.3,2.12,13.59,13.59,0,0,1-5.89,1.18l0-.81a12.67,12.67,0,0,0,5.5-1.15,4.93,4.93,0,0,0,1.94-1.82,8,8,0,0,0,.92-2.6c.18-.93.29-1.9.44-2.88s.37-1.95.62-2.91a53.64,53.64,0,0,1,1.87-5.62l2.16-5.45a14.37,14.37,0,0,0,1.17-5.46,6.69,6.69,0,0,0-.55-2.6,2.79,2.79,0,0,0-1.62-1.67,3.82,3.82,0,0,0-2.43,0c-.83.28-1.6.82-2.66,1.23Z" transform="translate(-193.82 -300.89)"/><path class="cls-7" d="M346.1,384.13a3.29,3.29,0,0,0,.43-2.36,1.87,1.87,0,0,0-1.81-1.2,4.4,4.4,0,0,0-2.32.53,11,11,0,0,0-2,1.43.41.41,0,0,1-.57,0,.42.42,0,0,1,.05-.58h0a12.22,12.22,0,0,1,2.25-1.38,4.82,4.82,0,0,1,2.65-.43,3,3,0,0,1,1.29.46,1.77,1.77,0,0,1,.79,1.14,3.56,3.56,0,0,1-.59,2.54.11.11,0,0,1-.13,0A.09.09,0,0,1,346.1,384.13Z" transform="translate(-193.82 -300.89)"/><path class="cls-7" d="M338.56,389.12a4.6,4.6,0,0,1,1.74,3.11,5.25,5.25,0,0,1-1,3.46c-.65,1-1.43,1.9-2,2.86a8.9,8.9,0,0,0-1.19,3.13.41.41,0,0,1-.47.33.4.4,0,0,1-.33-.47v0a9.87,9.87,0,0,1,1.41-3.34c.67-1,1.48-1.86,2.12-2.8a4.73,4.73,0,0,0,1-3.11,4.2,4.2,0,0,0-1.5-2.91.15.15,0,0,1,.19-.24Z" transform="translate(-193.82 -300.89)"/><path class="cls-7" d="M326.62,423.27a47.22,47.22,0,0,0-1.1,9.67c-.13,3.29-.47,6.57-.66,9.85a154.32,154.32,0,0,0-.14,19.71.21.21,0,0,1-.19.22.23.23,0,0,1-.22-.18,141,141,0,0,1-.94-19.81c.06-3.31.12-6.62.46-9.91a36,36,0,0,1,2-9.8.41.41,0,0,1,.78.25Z" transform="translate(-193.82 -300.89)"/><path class="cls-7" d="M343,464.11a27,27,0,0,1-6-2.28,31.61,31.61,0,0,1-9.89-8.11,28.13,28.13,0,0,1-3.44-5.41l.63-.35a44.44,44.44,0,0,0,3.8,4.92,38.38,38.38,0,0,0,4.47,4.27,38,38,0,0,0,5.06,3.55,45.83,45.83,0,0,0,5.56,2.79Z" transform="translate(-193.82 -300.89)"/><path class="cls-7" d="M315.13,383.22a19,19,0,0,1,3.83-1.15,7.58,7.58,0,0,1,2.91,6.27c0,3.91-2.45,7.09-5.48,7.09s-5.48-3.18-5.48-7.09a8.94,8.94,0,0,1,.93-4C313,383.94,314,383.61,315.13,383.22Z" transform="translate(-193.82 -300.89)"/><path class="cls-7" d="M326.15,382.05l-.63-.08-.57-.05c-.39,0-.78,0-1.17,0a20.74,20.74,0,0,0-2.35.15,35.21,35.21,0,0,0-4.65.86c-1.54.37-3,.87-4.55,1.38l-2.23.83-2.2.92a.06.06,0,1,1-.05-.11l2.17-1,2.21-.91a47.52,47.52,0,0,1,4.54-1.54,33.52,33.52,0,0,1,4.69-1.05,23.78,23.78,0,0,1,2.4-.23c.41,0,.81,0,1.22,0l.61,0,.31,0,.25,0,.24.17a.34.34,0,0,1,.07.47A.31.31,0,0,1,326.15,382.05Z" transform="translate(-193.82 -300.89)"/><path class="cls-7" d="M324,394.17a14.21,14.21,0,0,1-3.23,1,22.87,22.87,0,0,1-3.3.4,24.36,24.36,0,0,1-3.31-.08,30,30,0,0,1-3.27-.48.07.07,0,0,1-.05-.08.08.08,0,0,1,.08-.05,29.73,29.73,0,0,0,3.26.32,25.31,25.31,0,0,0,3.26-.08,23,23,0,0,0,3.2-.54,14,14,0,0,0,3-1.1h0a.38.38,0,1,1,.36.68Z" transform="translate(-193.82 -300.89)"/><path class="cls-7" d="M322,378.34a17.86,17.86,0,0,0-6.25.67,29.19,29.19,0,0,0-5.85,2.41.22.22,0,0,1-.3-.09.22.22,0,0,1,.09-.29h0a29.87,29.87,0,0,1,5.95-2.43,18.14,18.14,0,0,1,6.39-.65.19.19,0,1,1,0,.38Z" transform="translate(-193.82 -300.89)"/><path class="cls-7" d="M303.53,407.09a17.21,17.21,0,0,1,1.09,2,5.69,5.69,0,0,1,.23.55,1.06,1.06,0,0,1,0,.68,4.41,4.41,0,0,1-.62,1,3.64,3.64,0,0,1-2,1.44,5.42,5.42,0,0,1-2.42-.16.41.41,0,0,1,.18-.8h0a4.7,4.7,0,0,0,2.08.31,3.05,3.05,0,0,0,1.72-1.11,4.1,4.1,0,0,0,.62-.87c.13-.27,0-.59-.15-1a16,16,0,0,0-.93-2.07.1.1,0,0,1,0-.12A.11.11,0,0,1,303.53,407.09Z" transform="translate(-193.82 -300.89)"/><path class="cls-7" d="M343.07,385.46a1.29,1.29,0,0,0-.06-.81.93.93,0,0,0-.64-.39,2.26,2.26,0,0,0-1.58.33,2.21,2.21,0,0,0-.94,1.24c-.17.53-.3,1.14-.46,1.71h0a.4.4,0,0,1-.49.29.41.41,0,0,1-.29-.5,0,0,0,0,1,0,0c.21-.57.37-1.12.62-1.71a2.76,2.76,0,0,1,1.31-1.44,2.67,2.67,0,0,1,1.9-.22,1.23,1.23,0,0,1,.78.6,1.47,1.47,0,0,1,0,.95.08.08,0,1,1-.16,0Z" transform="translate(-193.82 -300.89)"/><path class="cls-7" d="M333.5,371.62c-1.89.29-3.79.56-5.68.81l-5.7.73h.07l-8.86,1.65q-4.44.81-8.88,1.56l1-.72-1.77,1.27a.45.45,0,0,1-.63-.11.46.46,0,0,1-.09-.27l0-2.18a.67.67,0,0,1,.58-.66l.43-.06q4.46-.64,8.93-1.23l8.94-1.15H322l5.73-.25c1.91-.08,3.83-.14,5.74-.17a.4.4,0,0,1,.42.39A.41.41,0,0,1,333.5,371.62Z" transform="translate(-193.82 -300.89)"/><path class="cls-7" d="M262.38,370.82c1.91,0,3.83.09,5.74.17l5.73.25h.07l8.94,1.15q4.47.59,8.93,1.23l.43.06a.68.68,0,0,1,.59.66l0,2.18a.46.46,0,0,1-.45.46.5.5,0,0,1-.27-.08l-1.77-1.27,1,.72q-4.44-.75-8.87-1.56l-8.87-1.65h.07l-5.7-.73c-1.89-.25-3.79-.52-5.68-.81a.4.4,0,0,1,.07-.8Z" transform="translate(-193.82 -300.89)"/><path class="cls-7" d="M307.07,443.6a28,28,0,0,1-2.43,6.56,27.51,27.51,0,0,1-4,5.76.22.22,0,0,1-.31,0,.21.21,0,0,1,0-.29,39.09,39.09,0,0,0,3.74-5.78,36.87,36.87,0,0,0,2.63-6.36.2.2,0,0,1,.24-.13A.19.19,0,0,1,307.07,443.6Z" transform="translate(-193.82 -300.89)"/><path class="cls-7" d="M297.93,480.65c-2.32-.14-4.45-.44-6.66-.77s-4.36-.74-6.52-1.2A110.88,110.88,0,0,1,272,475.19a90.65,90.65,0,0,1-12.26-5.12,68.39,68.39,0,0,1-11.23-7.15h.91l-5.31,3.82h0l0-.86a82.46,82.46,0,0,0,12,8.27,96.13,96.13,0,0,0,13.21,6.27q3.42,1.29,6.93,2.32c2.35.65,4.71,1.25,7.1,1.7a77.76,77.76,0,0,0,14.51,1.44v1.47a79.52,79.52,0,0,1-14.77-1.54c-2.43-.48-4.83-1.11-7.21-1.79s-4.72-1.51-7-2.39a96.91,96.91,0,0,1-13.34-6.44,82.59,82.59,0,0,1-12.17-8.48l-.52-.44.55-.42h0l5.09-4.1.42-.34.48.35h0a67.19,67.19,0,0,0,11,7,89.62,89.62,0,0,0,12.05,5,111.65,111.65,0,0,0,12.63,3.45c2.13.45,4.28.85,6.44,1.18s4.37.63,6.44.76Z" transform="translate(-193.82 -300.89)"/><path class="cls-7" d="M244.8,467.34a46.81,46.81,0,0,1-7.43,4.42,78.43,78.43,0,0,1-8,3.22c-5.41,1.89-10.89,3.48-16.1,5.66a46.23,46.23,0,0,0-7.46,3.87c-2.38,1.49-4.58,3.2-5.8,5.57a32.54,32.54,0,0,0-1.62,3.84c-.5,1.33-1,2.65-1.48,4a46.13,46.13,0,0,0-2.14,8.15l-1-.11a36.65,36.65,0,0,1,1.72-8.5c.43-1.37.88-2.74,1.38-4.08a33.64,33.64,0,0,1,1.67-4.05,12.06,12.06,0,0,1,2.79-3.58,25.9,25.9,0,0,1,3.57-2.59,47.71,47.71,0,0,1,7.73-3.95c5.34-2.22,10.88-3.7,16.27-5.48,2.69-.9,5.36-1.85,8-3a46.34,46.34,0,0,0,7.39-4.1Z" transform="translate(-193.82 -300.89)"/><path class="cls-7" d="M297.69,479.18a58.79,58.79,0,0,0,6.35-.67c2.12-.32,4.24-.7,6.35-1.16a105.11,105.11,0,0,0,12.43-3.48,87.21,87.21,0,0,0,11.83-5.11,69.52,69.52,0,0,0,10.78-7h0l.49-.35.42.34,5.09,4.1h0l.55.42-.52.44a83.12,83.12,0,0,1-12.17,8.48,96.48,96.48,0,0,1-13.35,6.44q-3.46,1.32-7,2.39c-2.38.68-4.78,1.31-7.21,1.79a79.61,79.61,0,0,1-14.77,1.54v-1.47a77.67,77.67,0,0,0,14.51-1.44c2.39-.45,4.76-1.05,7.1-1.7s4.65-1.46,6.94-2.32a96.13,96.13,0,0,0,13.21-6.27,82.46,82.46,0,0,0,12-8.27l0,.86h0l-5.31-3.82h.91a70.82,70.82,0,0,1-11,7.15,88.7,88.7,0,0,1-12,5.19,106.29,106.29,0,0,1-12.61,3.54q-3.19.69-6.44,1.18a58.57,58.57,0,0,1-6.59.67Z" transform="translate(-193.82 -300.89)"/><path class="cls-7" d="M350.54,466.64a46.66,46.66,0,0,0,7.32,4.07c2.56,1.12,5.21,2.07,7.87,3,5.35,1.76,10.84,3.23,16.13,5.4a50.37,50.37,0,0,1,7.7,3.86l1.82,1.18c.59.42,1.17.86,1.74,1.34A12.32,12.32,0,0,1,396,488.9a25.85,25.85,0,0,1,1.72,4c.5,1.35.9,2.72,1.3,4.07l2.43,8.14-.93.28c-1-2.61-2-5.29-2.89-8-.44-1.34-.91-2.66-1.39-4a25,25,0,0,0-1.65-3.75c-1.3-2.28-3.55-3.93-5.9-5.4a49,49,0,0,0-7.43-3.79c-5.17-2.13-10.6-3.71-16-5.59a77.29,77.29,0,0,1-7.93-3.2,47.9,47.9,0,0,1-7.35-4.39Z" transform="translate(-193.82 -300.89)"/><circle class="cls-8" cx="90.72" cy="86.75" r="2.09"/><circle class="cls-8" cx="127.46" cy="86.75" r="2.09"/><path class="cls-7" d="M310.55,419.88l-.27-.08a3.16,3.16,0,0,0-1-.25c-.16,0-.33.05-.49.07a4.5,4.5,0,0,1-1.16,0,41.28,41.28,0,0,1-8.08-2.05.51.51,0,0,0-.3,0,.62.62,0,0,0-.21.15l-.84.87-.84-.87a.54.54,0,0,0-.21-.15.52.52,0,0,0-.3,0,41,41,0,0,1-8.07,2.05,4.53,4.53,0,0,1-1.16,0c-.17,0-.33-.06-.5-.07a3.22,3.22,0,0,0-1.05.25l-.26.08a9.62,9.62,0,0,1-1.4.37,7.81,7.81,0,0,0,1.87.06,3.18,3.18,0,0,1,1.15,0l.39.11a1.9,1.9,0,0,0,.63,0c2.84-.16,5.68-.4,8.5-.77a1.74,1.74,0,0,1,1.24.11v0h0v0a1.72,1.72,0,0,1,1.23-.11c2.83.37,5.66.61,8.5.77a2,2,0,0,0,.64,0l.38-.11a3.18,3.18,0,0,1,1.15,0,7.88,7.88,0,0,0,1.88-.06A9.62,9.62,0,0,1,310.55,419.88Z" transform="translate(-193.82 -300.89)"/><path class="cls-7" d="M298.08,443.4a32.11,32.11,0,0,0,6.87-1.83c1.37-.48,2.85-1,3.63-2.22a14.59,14.59,0,0,1-3.24-.17,9.83,9.83,0,0,0-2.14-.39c-.45,0-.89.1-1.35.12a3.73,3.73,0,0,1-2.45-.81c-.54-.42-.8-1.18-1.4-1.47h0c-.59.29-.86,1.05-1.4,1.47a3.72,3.72,0,0,1-2.45.81c-.45,0-.89-.12-1.35-.12a10,10,0,0,0-2.14.39,14.5,14.5,0,0,1-3.23.17c.78,1.19,2.26,1.74,3.63,2.22a32.11,32.11,0,0,0,6.87,1.83" transform="translate(-193.82 -300.89)"/><path class="cls-7" d="M354.06,359.66A45.12,45.12,0,0,0,346.5,343a36,36,0,0,0-3.76-4.23,33.88,33.88,0,0,0-8.37-6,8.57,8.57,0,0,0-2.24-.69,33.29,33.29,0,0,0,.48-9.81c-16.34-8.64-35.66-12.95-53.57-8.34a14.06,14.06,0,0,0-3.17,1.12,15.7,15.7,0,0,0-3.94,3.29,130.76,130.76,0,0,0-11.71,14.23l-.53.75a35.47,35.47,0,0,0-7.32,5.49,35.88,35.88,0,0,0-3.75,4.23,45.3,45.3,0,0,0-7.57,16.63,12.74,12.74,0,0,1,3.76-2.84c-1,4.08.15,8.34,1.31,12.38l-2.83,1.26a56.73,56.73,0,0,0,7.93.05c.74.86,1.51,1.72,2.19,2.62l3,15.56,1.62-19a79.62,79.62,0,0,0,17.19-5.13,128.1,128.1,0,0,0,17.55-9.22A123.23,123.23,0,0,0,313.25,351c1.74-.53,7.38-1.6,9.54-3.17l5.61-.81.36,10.82,8.43,5.11,2.2,25.79L342.64,372c1.59-1.88,3.39-3.66,4.12-6a6.39,6.39,0,0,1,2.22,3.27c1.16-4.06,2.33-8.34,1.32-12.43A12.61,12.61,0,0,1,354.06,359.66Zm-107.9,9.53a6.26,6.26,0,0,1,2.2-3.21,8.56,8.56,0,0,0,.82,1.79C248.18,368.26,247.17,368.73,246.16,369.19Z" transform="translate(-193.82 -300.89)"/><path class="cls-7" d="M375.53,507a.32.32,0,0,1-.32-.31,89.06,89.06,0,0,1,.86-13.16,33.81,33.81,0,0,1,1.66-7.21,21.06,21.06,0,0,1,4.12-6.74.32.32,0,1,1,.47.43,20.44,20.44,0,0,0-4,6.53,34.31,34.31,0,0,0-1.63,7.08,89.07,89.07,0,0,0-.85,13.06.32.32,0,0,1-.32.32Z" transform="translate(-193.82 -300.89)"/><path class="cls-7" d="M216.46,507.4h0a.32.32,0,0,1-.3-.34,43.07,43.07,0,0,0-6.44-25.68.33.33,0,0,1,.1-.45.32.32,0,0,1,.44.1,43.69,43.69,0,0,1,6.54,26.07A.32.32,0,0,1,216.46,507.4Z" transform="translate(-193.82 -300.89)"/></g></svg>