<svg id="Layer_1" data-name="Layer 1" xmlns="http://www.w3.org/2000/svg" xmlns:xlink="http://www.w3.org/1999/xlink" viewBox="0 0 204.09 209.15"><defs><style>.cls-1{fill:#f6efe9;}.cls-2{clip-path:url(#clip-path);}.cls-3{fill:#0a0a10;}.cls-4{fill:#f48784;}.cls-5{fill:#cf4e4e;}.cls-6{fill:#a8715a;}.cls-7{fill:#724c3e;}.cls-8{fill:#f4efe9;}</style><clipPath id="clip-path" transform="translate(-194.96 -301.28)"><circle class="cls-1" cx="297" cy="403.32" r="102.04"/></clipPath></defs><circle class="cls-1" cx="102.04" cy="102.04" r="102.04"/><g class="cls-2"><path class="cls-3" d="M331.28,453.32c.76-.88,1.39-1.91,2.08-2.85,2.69-3.65,6.21-2.49,10.16-2.19,3,.23,6.69-.53,7.4-3.41.17-.72.12-1.49.32-2.21,1.21-4.22,9-2.42,10.79-6.43.91-2.05-.37-4.34-1.39-6.34-3.05-6-2.81-11.68-2.86-18.18,0-6,3-11.55.8-17.57-.68-1.84-1.79-3.53-2.19-5.45-.94-4.41,2-8.71,2.35-13.21a12,12,0,0,0-.83-5.55c-1-2.38-2.69-4.43-3.48-6.87-1.21-3.78-.08-8.11-1.75-11.71-1-2.23-3-3.85-4.93-5.4-4.06-3.28-10.61-9.24-16.28-7.79a28.06,28.06,0,0,0-19.42,18.48c-1.76,5.64-1.65,11.66-1.53,17.56.34,17,.66,34.14-1.84,51-1.26,8.51-3.24,16.91-4.07,25.47-.28,2.88.2,6.23,3.84,6.35,2.14.07,4.12-1,6.16-1.69a15.93,15.93,0,0,1,7.22-.62c2.52.37,5.19,1.31,7.48.21A6,6,0,0,0,331.28,453.32Z" transform="translate(-194.96 -301.28)"/><path class="cls-3" d="M264.84,453.32c-.75-.88-1.38-1.91-2.07-2.85-2.69-3.65-6.21-2.49-10.17-2.19-2.95.23-6.69-.53-7.39-3.41-.18-.72-.12-1.49-.32-2.21-1.21-4.22-9-2.42-10.79-6.43-.92-2.05.37-4.34,1.38-6.34,3.06-6,2.82-11.68,2.87-18.18,0-6-3-11.55-.8-17.57.68-1.84,1.78-3.53,2.19-5.45.94-4.41-2-8.71-2.36-13.21a12.1,12.1,0,0,1,.84-5.55c1-2.38,2.69-4.43,3.48-6.87,1.21-3.78.08-8.11,1.75-11.71,1-2.23,3-3.85,4.93-5.4,4.06-3.28,10.61-9.24,16.28-7.79a28.06,28.06,0,0,1,19.42,18.48c1.75,5.64,1.65,11.66,1.53,17.56-.34,17-.66,34.14,1.84,51,1.26,8.51,3.24,16.91,4.07,25.47.28,2.88-.2,6.23-3.84,6.35-2.14.07-4.13-1-6.16-1.69a15.93,15.93,0,0,0-7.22-.62c-2.52.37-5.2,1.31-7.49.21A6.14,6.14,0,0,1,264.84,453.32Z" transform="translate(-194.96 -301.28)"/><path class="cls-4" d="M394,510.42l-9.29-18.76a31.07,31.07,0,0,0-15.2-11.26s-23.09-6.94-26.47-8.07l-9.94-5.44c-.48.47-1,.91-1.49,1.34a63.13,63.13,0,0,1-5.47,4.17,58.94,58.94,0,0,1-8.65,4.89,43.93,43.93,0,0,1-10.94,3.45,34.18,34.18,0,0,1-6.06.5c-1,0-2.07-.13-3.09-.11-1.31,0-2.61.11-3.91.11a34.78,34.78,0,0,1-4-.2,42,42,0,0,1-11.23-3,56.91,56.91,0,0,1-9.11-4.79,63.27,63.27,0,0,1-6.09-4.45c-.15-.12-2.12-2-2.22-1.95L251,472.33c-3.38,1.13-26.47,8.07-26.47,8.07a31.07,31.07,0,0,0-15.2,11.26L200,510.42Z" transform="translate(-194.96 -301.28)"/><path class="cls-5" d="M312.08,510.42C329.52,498.3,338,476.66,338,476.66c-47.2,32.11-86.65-4.54-86.65-4.54-3.31,3.41-8,5.28-11.26,8.72a36.64,36.64,0,0,0-3.27,4,63.79,63.79,0,0,0-3.64,5.81,26.89,26.89,0,0,0-3.6,11.7,20.27,20.27,0,0,0,1.23,8.05Z" transform="translate(-194.96 -301.28)"/><path class="cls-5" d="M205.85,497.6c3.34-1.55,6.79-3.17,9.18-6,1.1-1.29,1.93-2.78,3-4.11,3.59-4.57,9.3-6.84,14.73-8.91-6,1.6-11.5,3-16.94,5.93A9.32,9.32,0,0,0,214,485.7a10.3,10.3,0,0,0-1.84,2.44C210.27,491.31,207.78,494.43,205.85,497.6Z" transform="translate(-194.96 -301.28)"/><path class="cls-5" d="M388.15,497.6c-3.35-1.55-6.8-3.17-9.19-6-1.1-1.29-1.93-2.78-3-4.11-3.59-4.57-9.3-6.84-14.73-8.91,6,1.6,11.5,3,16.94,5.93A9,9,0,0,1,380,485.7a10,10,0,0,1,1.84,2.44C383.72,491.31,386.21,494.43,388.15,497.6Z" transform="translate(-194.96 -301.28)"/><path class="cls-6" d="M346,380.16a4.17,4.17,0,0,0-2.12-.13l-.58.12.07-.58a109.38,109.38,0,0,0,.7-13,48.46,48.46,0,0,0-.64-7.57,16.76,16.76,0,0,0-2.73-7.17c-.37-.43-.69-.8-1.05-1.18s-.69-.74-1.09-1.14c-.56-.58-1.14-1.14-1.71-1.68l-.55-.53c-1.78-1.62-3.3-2.91-4.78-4.07s-3-2.28-5.08-3.71l-2.63-1.73-2.7-1.61a84.52,84.52,0,0,0-11.29-5.49c-1.54-.67-3.15-1.21-4.71-1.74l-1.21-.41c-.71-.26-1.45-.46-2.16-.66l-.85-.23-3-.84H297l-.09,0-3.36.91-1.68.46-1.64.54-3.3,1.11-3.23,1.29a87.94,87.94,0,0,0-23.56,14.51c-2.09,1.85-3.65,3.34-5,4.81a2.29,2.29,0,0,1-.21.23l-.37.41-.18.2-.42.49a10.48,10.48,0,0,0-1,1.53,16.3,16.3,0,0,0-1.27,3.33,35.11,35.11,0,0,0-1.07,6.91c-.14,2.12-.17,4.39-.09,7,.08,2.84.29,5.78.62,9l.05.5-.51,0h-.3a3.84,3.84,0,0,0-1.27.2,5.3,5.3,0,0,0-2.31,1.46,7.28,7.28,0,0,0-1.75,5,20.83,20.83,0,0,0,.71,5.25c.4,1.62.92,3.19,1.57,5,.27.76.55,1.53.82,2.3.88,2.5,1.8,5.08,2.83,7.58.37.87.71,1.66,1.06,2.41l.12.26a16.45,16.45,0,0,0,1.11,2.06,4.45,4.45,0,0,0,1.89,1.69,3.21,3.21,0,0,0,1.2.24h.05a2,2,0,0,0,.74-.15l.39-.14.16.38a55.63,55.63,0,0,0,5.76,10.4c1.56,2.17,2.94,3.92,4.32,5.5,1.58,1.81,3.21,3.51,4.84,5.06,1,1,1.84,1.69,2.62,2.32l.43.35.22.18-.09.28a.47.47,0,0,0,0,.16l.32,21.45v.19l-.15.13c-1,.86-2.07,1.73-3.54,2.81-1.24.93-2.6,1.88-4.14,2.93-1.74,1.17-3.5,2.32-5.22,3.4h0l-.05,0,.22.19.22.18,0,0,0,0c8.77,9.5,27.83,12.27,28,12.3,1.06.07,4.9-.26,6-.26a51.22,51.22,0,0,0,30.41-10.37l.12-.08h.44a1.75,1.75,0,0,1,.28-.33,20.79,20.79,0,0,1,2.26-1.88.78.78,0,0,1,.18-.11c-1.54-1-3.14-2.14-4.87-3.4-1.38-1-2.62-2-3.8-2.9-1.34-1.08-2.41-2-3.38-2.88l-.14-.13v-.19l.31-21.11a.5.5,0,0,0-.18-.4l-.39-.34.4-.32c1-.79,1.93-1.65,2.64-2.31,1.64-1.54,3.29-3.24,4.88-5.05s2.93-3.54,4.36-5.52a55,55,0,0,0,5.85-10.53l.17-.42.41.2a2.73,2.73,0,0,0,1,.26l.33,0a4.1,4.1,0,0,0,1-.13,2.88,2.88,0,0,0,1.12-.56,4.91,4.91,0,0,0,.89-1,13.66,13.66,0,0,0,1.24-2.24l0-.07c.36-.76.72-1.56,1.08-2.42,1.07-2.55,2-5.19,2.91-7.74l.78-2.21c.66-1.86,1.18-3.44,1.59-5.07a24.17,24.17,0,0,0,.53-2.61,16.26,16.26,0,0,0,.21-2.67,7.38,7.38,0,0,0-1.73-5.05A5.56,5.56,0,0,0,346,380.16Z" transform="translate(-194.96 -301.28)"/><path class="cls-7" d="M318.94,436.86s-4.87,29.76-27.95,24.46c0,0-10.84-3-14.34-14.1-.17-2.18-.1-4.76-.27-6.94a4.71,4.71,0,0,1,1-2.52c.52-.45,1.71,1.26,2.06,1.59a18.94,18.94,0,0,0,2.55,2,18.25,18.25,0,0,0,3,1.61c1.64.7,3.38,1.17,5,1.85,2.57,1.06,5.43,3.1,8.34,2.25l3.21-1c2.13-.66,4.24-1.38,6.3-2.24A40.08,40.08,0,0,0,318.94,436.86Z" transform="translate(-194.96 -301.28)"/><polygon class="cls-7" points="71.37 74.61 77.67 77.03 95.78 79.19 97.37 85.66 97.03 107.81 98.72 98.86 98.88 85.19 96.87 76.6 91.77 75.86 76.35 73.74 71.37 74.61"/><polygon class="cls-7" points="107.64 76.81 109.66 78.6 125.71 77.57 133.12 74.75 128.19 74.14 109.71 75.76 107.64 76.81"/><path class="cls-7" d="M347.82,387a2.64,2.64,0,0,0-2.83-.48,3.18,3.18,0,0,0-1.12,1.18,8.1,8.1,0,0,0-.93,2.23c-.47,1.94-.19,4-.25,6-.15,5.05-2.5,9.75-4.89,14.2A128.26,128.26,0,0,0,342,386.5a16.09,16.09,0,0,1,1.11-5.6,1,1,0,0,1,1.05-.67,7.31,7.31,0,0,1,1.62,0,5,5,0,0,1,3.72,3.68,14.82,14.82,0,0,1,.24,5.48.35.35,0,0,1-.11.26C349,389,348.7,387.7,347.82,387Z" transform="translate(-194.96 -301.28)"/><path class="cls-7" d="M247.59,387a2.65,2.65,0,0,1,2.84-.48,3.08,3.08,0,0,1,1.11,1.18,7.53,7.53,0,0,1,.93,2.23c.48,1.94.19,4,.25,6,.16,5.05,2.5,9.75,4.89,14.2a129.11,129.11,0,0,1-4.22-23.58,16.09,16.09,0,0,0-1.11-5.6,1.24,1.24,0,0,0-.37-.51,1.29,1.29,0,0,0-.68-.16,7.31,7.31,0,0,0-1.62,0,5,5,0,0,0-3.71,3.68,14.83,14.83,0,0,0-.25,5.48.39.39,0,0,0,.11.26C246.39,389,246.71,387.7,247.59,387Z" transform="translate(-194.96 -301.28)"/><polygon class="cls-7" points="99.98 131.79 104.03 130.42 104.25 131.79 101.84 132.31 99.98 131.79"/><path class="cls-7" d="M304.1,417.05s-6.43,7.54-12.51,0l2.4.59,2.83.37,3-.11,1.27-.37,1.91-.13Z" transform="translate(-194.96 -301.28)"/><path class="cls-7" d="M302.8,405.42a.38.38,0,1,1-.75,0,.38.38,0,0,1,.75,0Z" transform="translate(-194.96 -301.28)"/><path class="cls-7" d="M302.17,408.11a.56.56,0,1,1-1.12,0,.56.56,0,0,1,1.12,0Z" transform="translate(-194.96 -301.28)"/><path class="cls-7" d="M306.93,407.86a.57.57,0,1,1-1.13,0,.57.57,0,0,1,1.13,0Z" transform="translate(-194.96 -301.28)"/><path class="cls-7" d="M306.3,410.55a.5.5,0,0,1-.5.5.5.5,0,0,1-.5-.5.51.51,0,0,1,.5-.5A.5.5,0,0,1,306.3,410.55Z" transform="translate(-194.96 -301.28)"/><path class="cls-7" d="M310.93,412.93a.38.38,0,1,1-.75,0,.38.38,0,0,1,.75,0Z" transform="translate(-194.96 -301.28)"/><path class="cls-7" d="M313.31,411.05a.75.75,0,1,1-.75-.75A.75.75,0,0,1,313.31,411.05Z" transform="translate(-194.96 -301.28)"/><circle class="cls-7" cx="128.36" cy="110.65" r="0.63"/><path class="cls-7" d="M315.19,413.68a.25.25,0,0,1-.25.25.25.25,0,0,1,0-.5A.25.25,0,0,1,315.19,413.68Z" transform="translate(-194.96 -301.28)"/><path class="cls-7" d="M319.57,411.24a.57.57,0,0,1-.57.56.56.56,0,0,1,0-1.12A.57.57,0,0,1,319.57,411.24Z" transform="translate(-194.96 -301.28)"/><path class="cls-7" d="M319.32,405.05a.38.38,0,0,1-.76,0,.38.38,0,0,1,.76,0Z" transform="translate(-194.96 -301.28)"/><path class="cls-7" d="M325.32,403a.44.44,0,0,1-.44.44.44.44,0,0,1,0-.87A.44.44,0,0,1,325.32,403Z" transform="translate(-194.96 -301.28)"/><path class="cls-7" d="M315.44,404.55a.51.51,0,0,1-.5.5.5.5,0,0,1-.5-.5.5.5,0,0,1,.5-.5A.5.5,0,0,1,315.44,404.55Z" transform="translate(-194.96 -301.28)"/><path class="cls-7" d="M329.83,410.18a.51.51,0,0,1-1,0,.51.51,0,0,1,1,0Z" transform="translate(-194.96 -301.28)"/><circle class="cls-7" cx="113.66" cy="113.72" r="0.31"/><path class="cls-7" d="M313.56,416a.18.18,0,0,1-.19.18.19.19,0,1,1,0-.37A.18.18,0,0,1,313.56,416Z" transform="translate(-194.96 -301.28)"/><circle class="cls-7" cx="127.42" cy="112.84" r="0.19"/><path class="cls-7" d="M288.65,405.42a.38.38,0,1,0,.75,0,.38.38,0,0,0-.75,0Z" transform="translate(-194.96 -301.28)"/><path class="cls-7" d="M289.28,408.11a.56.56,0,1,0,1.12,0,.56.56,0,0,0-1.12,0Z" transform="translate(-194.96 -301.28)"/><path class="cls-7" d="M284.52,407.86a.57.57,0,1,0,1.13,0,.57.57,0,0,0-1.13,0Z" transform="translate(-194.96 -301.28)"/><path class="cls-7" d="M285.15,410.55a.5.5,0,0,0,.5.5.5.5,0,0,0,.5-.5.51.51,0,0,0-.5-.5A.5.5,0,0,0,285.15,410.55Z" transform="translate(-194.96 -301.28)"/><path class="cls-7" d="M280.52,412.93a.38.38,0,1,0,.75,0,.38.38,0,0,0-.75,0Z" transform="translate(-194.96 -301.28)"/><path class="cls-7" d="M278.14,411.05a.75.75,0,1,0,.75-.75A.75.75,0,0,0,278.14,411.05Z" transform="translate(-194.96 -301.28)"/><circle class="cls-7" cx="73.17" cy="110.65" r="0.63"/><path class="cls-7" d="M276.26,413.68a.25.25,0,0,0,.25.25.25.25,0,0,0,0-.5A.25.25,0,0,0,276.26,413.68Z" transform="translate(-194.96 -301.28)"/><path class="cls-7" d="M271.88,411.24a.57.57,0,0,0,.57.56.56.56,0,1,0,0-1.12A.57.57,0,0,0,271.88,411.24Z" transform="translate(-194.96 -301.28)"/><path class="cls-7" d="M272.13,405.05a.37.37,0,0,0,.38.37.36.36,0,0,0,.37-.37.37.37,0,0,0-.37-.38A.38.38,0,0,0,272.13,405.05Z" transform="translate(-194.96 -301.28)"/><path class="cls-7" d="M266.13,403a.44.44,0,1,0,.87,0,.44.44,0,0,0-.87,0Z" transform="translate(-194.96 -301.28)"/><path class="cls-7" d="M276,404.55a.51.51,0,0,0,.5.5.5.5,0,0,0,.5-.5.5.5,0,0,0-.5-.5A.5.5,0,0,0,276,404.55Z" transform="translate(-194.96 -301.28)"/><path class="cls-7" d="M261.62,410.18a.51.51,0,0,0,.5.5.5.5,0,0,0,.5-.5.5.5,0,0,0-.5-.5A.5.5,0,0,0,261.62,410.18Z" transform="translate(-194.96 -301.28)"/><circle class="cls-7" cx="87.88" cy="113.72" r="0.31"/><path class="cls-7" d="M277.89,416a.18.18,0,0,0,.19.18.19.19,0,1,0,0-.37A.18.18,0,0,0,277.89,416Z" transform="translate(-194.96 -301.28)"/><path class="cls-7" d="M268.88,414.12a.19.19,0,0,0,.19.19.19.19,0,0,0,0-.38A.19.19,0,0,0,268.88,414.12Z" transform="translate(-194.96 -301.28)"/><path class="cls-3" d="M304.4,315.26a66.38,66.38,0,0,1,14.86,3.44,41.1,41.1,0,0,1,8.9,3.7c3.69,2.26,6.62,5.56,9.41,8.87a9.91,9.91,0,0,1,2,3c-11.07-3.64-21.55-9.6-33.14-10.76a82.73,82.73,0,0,0-13.63.14c1.38-2.15,2.54-5,4.28-6.91S302.14,315.07,304.4,315.26Z" transform="translate(-194.96 -301.28)"/><path class="cls-3" d="M290.81,315.26A66.42,66.42,0,0,0,276,318.7a40.89,40.89,0,0,0-8.9,3.7c-3.7,2.26-6.62,5.56-9.41,8.87a9.91,9.91,0,0,0-2,3c11.06-3.64,21.55-9.6,33.14-10.76a82.73,82.73,0,0,1,13.63.14c-1.38-2.15-2.54-5-4.28-6.91S293.08,315.07,290.81,315.26Z" transform="translate(-194.96 -301.28)"/><path class="cls-3" d="M339,402.36l-.09.07S339,402.44,339,402.36Z" transform="translate(-194.96 -301.28)"/><path class="cls-3" d="M256.15,402.43l-.09-.07C256.1,402.44,256.13,402.47,256.15,402.43Z" transform="translate(-194.96 -301.28)"/><path class="cls-3" d="M349.44,356.45a56.66,56.66,0,0,0-.75-6.61c-.73-4.26-2.2-7.2-4.32-10.93a.21.21,0,0,0,0-.06c-.13-.38-.27-.75-.43-1.11a15.68,15.68,0,0,0-4.85-7.31c-.28-.25-.59-.48-.88-.72l-.39-.49a38.24,38.24,0,0,0-19.38-12.59c-5.84-1.7-13.73-3.52-19.77-1.87a8.31,8.31,0,0,0-.88.31,7.76,7.76,0,0,0-.89-.31c-6.49-1.78-15.38-.14-21.55,2.28-3.69,1.44-7.35,4.51-10.52,6.85-2.45,1.81-4.84,3.73-7.13,5.75q-1.28,1.11-2.52,2.28A25.9,25.9,0,0,0,248,344.64a58,58,0,0,0-1.9,18,13.52,13.52,0,0,1,3-5.06c.42,11.64,2.4,23.2,4.38,34.69.3,1.7,1,9.13,2.59,10.07-.36-.74-1.42-7.15-1.63-6.67,1.61-6.2,3.53-19.89,4.51-25.91,2.77-.37,6-1.46,7.72-4.29a14.43,14.43,0,0,0,1.65-6.11,23.81,23.81,0,0,1,.62-3.7,13.37,13.37,0,0,1,3.17-5.45,52.18,52.18,0,0,1,12.79-1.45l0,0,9.12-.1c.16.11.32.22.47.34l.28.2a9.64,9.64,0,0,0,3.09,1.67,5.33,5.33,0,0,0,.83.13c.26.4.54.8.83,1.19a52.6,52.6,0,0,0,24.21,18.07,49.93,49.93,0,0,0,13,2.86c1,6.79,2.63,17.37,4,22.6-.21-.48-1.27,5.93-1.63,6.67,1.55-.94,2.29-8.37,2.58-10.07a296.14,296.14,0,0,0,4.15-30.18c.27-1.51.49-3,.61-4.57a13.46,13.46,0,0,1,3.09,5.12C348.88,361.14,349.53,358.14,349.44,356.45Zm-81.29-1a25.21,25.21,0,0,0-.65,3.82,13.69,13.69,0,0,1-1.53,5.78c-1.55,2.49-4.37,3.5-6.89,3.88a17.38,17.38,0,0,1,.4-2,5.49,5.49,0,0,1,3.48-3.75,29.13,29.13,0,0,0-1.58-3.84c2-4.58,4-6.83,8.7-8.52l.57-.18A13.69,13.69,0,0,0,268.15,355.46ZM298,350.05a6.28,6.28,0,0,1-1.71-.79,6.38,6.38,0,0,0,1.34.38v.09h.23c.06.11.14.22.21.34Z" transform="translate(-194.96 -301.28)"/><path class="cls-3" d="M340.13,352.35a67.8,67.8,0,0,0-9-8.37,87.29,87.29,0,0,0-21.44-12.25c-1.9-.81-3.88-1.42-5.83-2.08-1-.36-2-.59-3-.87l-3-.81.22,0h-.79l.22,0a90.4,90.4,0,0,0-25.11,10.5,87.2,87.2,0,0,0-11,8c-1.7,1.5-3.37,3.05-4.91,4.7-.38.4-.79.85-1.1,1.23a12.67,12.67,0,0,0-.82,1.32,14.48,14.48,0,0,0-1.15,3,48.08,48.08,0,0,0-1.13,13.44c.13,4.55.58,9.12,1.16,13.66a261.53,261.53,0,0,0,5.05,27l0-.07a52.46,52.46,0,0,0,6.32,12.1,71.11,71.11,0,0,0,9,10.41c.83.79,1.67,1.56,2.55,2.29l1.32,1.09,1.36,1a50.56,50.56,0,0,0,5.85,3.58c2,1.07,4.11,2.06,6.24,2.93s4.29,1.7,6.49,2.38h-.21a73.92,73.92,0,0,0,13-5,50.57,50.57,0,0,0,6-3.51l1.39-1c.46-.35.9-.73,1.35-1.09.9-.74,1.75-1.51,2.6-2.31a70.15,70.15,0,0,0,9.08-10.54A52.31,52.31,0,0,0,337.19,411l0,.05c1.18-4.88,2.2-9.81,3.1-14.75s1.67-9.92,2.23-14.9a115.84,115.84,0,0,0,.84-15,49.18,49.18,0,0,0-.68-7.4A16.32,16.32,0,0,0,340.13,352.35Zm1.25-1a17.54,17.54,0,0,1,2.8,7.36,49.16,49.16,0,0,1,.66,7.64,116.26,116.26,0,0,1-.95,15.17c-.61,5-1.41,10-2.35,15s-2,9.9-3.21,14.81l0,.05a53.3,53.3,0,0,1-6.63,12.5,70.79,70.79,0,0,1-9.3,10.63c-.86.81-1.74,1.6-2.66,2.34-.46.37-.91.75-1.38,1.11l-1.44,1a50.55,50.55,0,0,1-6.14,3.53,74.16,74.16,0,0,1-13.2,4.95.34.34,0,0,1-.2,0h0a64.75,64.75,0,0,1-13.17-4.81,49.77,49.77,0,0,1-6.09-3.58l-1.44-1-1.37-1.12c-.91-.74-1.79-1.54-2.64-2.34a71.84,71.84,0,0,1-9.22-10.63,54.23,54.23,0,0,1-6.59-12.49l0-.07a263,263,0,0,1-5.2-27.23,136.18,136.18,0,0,1-1.21-13.85,50.21,50.21,0,0,1,1.19-14,16.84,16.84,0,0,1,1.3-3.41,14.4,14.4,0,0,1,1-1.61c.41-.5.79-.91,1.2-1.35,1.6-1.71,3.31-3.3,5-4.84a89.85,89.85,0,0,1,11.27-8.24,88.5,88.5,0,0,1,12.42-6.34l3.24-1.3,3.31-1.11,1.65-.55,1.69-.46,3.37-.92.19,0h.83l.19,0,3.05.85c1,.29,2,.53,3,.9,2,.68,4,1.32,5.94,2.15a86.84,86.84,0,0,1,11.35,5.53,83,83,0,0,1,10.45,7.08A67,67,0,0,1,341.38,351.35Z" transform="translate(-194.96 -301.28)"/><path class="cls-3" d="M251.78,380.89a3.8,3.8,0,0,0-4.05,1.09,6.69,6.69,0,0,0-1.6,4.42c-.07,3.37,1,6.77,2.05,10.07s2.18,6.68,3.45,9.93a34.41,34.41,0,0,0,2.17,4.72,4.14,4.14,0,0,0,1.76,1.64,2.37,2.37,0,0,0,2.23-.06l.33.5a3,3,0,0,1-2.82.15,4.82,4.82,0,0,1-2.09-1.85,17.93,17.93,0,0,1-1.25-2.37c-.38-.8-.73-1.61-1.07-2.43-1.36-3.26-2.47-6.6-3.66-9.9s-2.31-6.74-2.3-10.44a7.79,7.79,0,0,1,1.86-5.28,5.78,5.78,0,0,1,2.49-1.58,4.51,4.51,0,0,1,3.05.09Z" transform="translate(-194.96 -301.28)"/><path class="cls-3" d="M248.26,387.61a3.8,3.8,0,0,1,.73-4.28,2.4,2.4,0,0,1,2.26-.78,2.43,2.43,0,0,1,1.69,1.81.41.41,0,0,1-.79.19v0a1.71,1.71,0,0,0-1.08-1.3,1.81,1.81,0,0,0-1.71.52,3.39,3.39,0,0,0-.84,3.76.14.14,0,0,1-.07.19A.15.15,0,0,1,248.26,387.61Z" transform="translate(-194.96 -301.28)"/><path class="cls-3" d="M254,394.14a3.27,3.27,0,0,0-1.68,2.85,6.14,6.14,0,0,0,1,3.29c.6,1,1.36,1.94,2,3s1.07,2.26,1.92,2.83a.41.41,0,0,1,.11.57.4.4,0,0,1-.56.1h0a4.18,4.18,0,0,1-1.19-1.56c-.28-.56-.51-1.08-.82-1.59-.59-1-1.32-2-1.9-3.07A6.56,6.56,0,0,1,252,397a3.53,3.53,0,0,1,1.94-3,.09.09,0,0,1,.12,0A.1.1,0,0,1,254,394.14Z" transform="translate(-194.96 -301.28)"/><path class="cls-3" d="M343.4,379.59a4.48,4.48,0,0,1,3.08-.08,5.88,5.88,0,0,1,2.49,1.6,7.9,7.9,0,0,1,1.84,5.33c0,3.72-1.19,7.16-2.36,10.5s-2.32,6.68-3.69,10c-.35.82-.71,1.63-1.09,2.44a14.65,14.65,0,0,1-1.31,2.38,5.49,5.49,0,0,1-1,1,3.44,3.44,0,0,1-1.29.66,3.63,3.63,0,0,1-2.82-.34l.33-.5a3,3,0,0,0,2.32.22,3.4,3.4,0,0,0,1.86-1.48A14.88,14.88,0,0,0,343,409c.36-.8.7-1.62,1-2.43,1.29-3.27,2.36-6.64,3.49-10s2.15-6.74,2.09-10.14A6.68,6.68,0,0,0,348,382a3.79,3.79,0,0,0-4.07-1.12Z" transform="translate(-194.96 -301.28)"/><path class="cls-3" d="M347.21,387.49a3.39,3.39,0,0,0-.84-3.76,1.79,1.79,0,0,0-1.7-.52,1.67,1.67,0,0,0-1.08,1.3.41.41,0,0,1-.81-.12v0a2.43,2.43,0,0,1,1.69-1.81,2.4,2.4,0,0,1,2.26.78,3.8,3.8,0,0,1,.73,4.28.14.14,0,0,1-.19.07A.15.15,0,0,1,347.21,387.49Z" transform="translate(-194.96 -301.28)"/><path class="cls-3" d="M341.84,394a3.51,3.51,0,0,1,1.94,3,6.56,6.56,0,0,1-.91,3.55c-.58,1.08-1.31,2.06-1.9,3.07-.31.51-.54,1-.82,1.59a4.18,4.18,0,0,1-1.19,1.56.4.4,0,1,1-.49-.64l0,0c.85-.57,1.23-1.81,1.92-2.83s1.43-2,2-3a6.14,6.14,0,0,0,1-3.29,3.27,3.27,0,0,0-1.68-2.85.09.09,0,0,1,.07-.16Z" transform="translate(-194.96 -301.28)"/><path class="cls-3" d="M297.3,418.39h0a6.84,6.84,0,0,1-5.36-2.6.47.47,0,0,1,.75-.55,5.87,5.87,0,0,0,4.61,2.22,7.21,7.21,0,0,0,4.9-2,.46.46,0,0,1,.65,0,.45.45,0,0,1,0,.65A8.28,8.28,0,0,1,297.3,418.39Z" transform="translate(-194.96 -301.28)"/><path class="cls-3" d="M291.06,411.9c-.31.68-.67,1.34-.92,2a1.54,1.54,0,0,0-.08,1,2.28,2.28,0,0,0,.5.86,4.37,4.37,0,0,0,3.76,1.25h0l-.43.48v-.18a.46.46,0,0,1,.44-.49.47.47,0,0,1,.48.44v.21a.42.42,0,0,1-.41.46h0a5.89,5.89,0,0,1-2.36-.39,4.25,4.25,0,0,1-1.93-1.42,3,3,0,0,1-.53-1.1,2,2,0,0,1,.18-1.23c.33-.7.73-1.32,1.09-2a.13.13,0,0,1,.17,0,.13.13,0,0,1,.05.16Z" transform="translate(-194.96 -301.28)"/><path class="cls-3" d="M291.89,377.76c.45,1.48.85,3,1.24,4.45s.75,3,1.11,4.48a.17.17,0,0,0,0,.07c0,1.88,0,3.76,0,5.64s-.08,3.77-.2,5.65-.27,3.76-.52,5.63a26.52,26.52,0,0,1-1.26,5.53.19.19,0,0,1-.23.11.19.19,0,0,1-.11-.23h0a25.78,25.78,0,0,0,1-5.47c.21-1.86.33-3.73.42-5.6.16-3.74.22-7.49.15-11.23v.07c-.34-1.5-.68-3-1-4.51s-.6-3-.84-4.54a.08.08,0,0,1,.07-.09A.07.07,0,0,1,291.89,377.76Z" transform="translate(-194.96 -301.28)"/><path class="cls-3" d="M304.68,411.78c.36.66.76,1.28,1.09,2A2,2,0,0,1,306,415a2.83,2.83,0,0,1-.54,1.1,4.17,4.17,0,0,1-1.92,1.42,5.92,5.92,0,0,1-2.36.39h0a.44.44,0,0,1-.43-.44h0v-.22a.47.47,0,0,1,.48-.44.46.46,0,0,1,.44.49v.18l-.43-.48h0a4.34,4.34,0,0,0,3.75-1.25,2.45,2.45,0,0,0,.51-.86,1.62,1.62,0,0,0-.08-1c-.25-.67-.62-1.33-.92-2h0a.12.12,0,0,1,.22-.11Z" transform="translate(-194.96 -301.28)"/><path class="cls-3" d="M287.05,450.49a51.26,51.26,0,0,0,5.57,16.38.21.21,0,1,1-.38.2,51.66,51.66,0,0,1-5.72-16.49.27.27,0,1,1,.53-.09Z" transform="translate(-194.96 -301.28)"/><path class="cls-3" d="M320.05,437.55l-.43,29a.52.52,0,0,1-.53.51.53.53,0,0,1-.52-.51l-.43-29a1,1,0,0,1,1.91,0Z" transform="translate(-194.96 -301.28)"/><path class="cls-3" d="M331.2,468.72a74.93,74.93,0,0,1-12.44-9.49.4.4,0,0,1,0-.58.42.42,0,0,1,.57,0,73.48,73.48,0,0,0,12.57,8.94.67.67,0,1,1-.67,1.17Z" transform="translate(-194.96 -301.28)"/><path class="cls-3" d="M277.56,437.55l-.43,29a.52.52,0,0,1-.53.51.53.53,0,0,1-.52-.51l-.43-29a1,1,0,0,1,1.91,0Z" transform="translate(-194.96 -301.28)"/><path class="cls-3" d="M262.29,467.74c2.45-1.42,4.91-2.78,7.3-4.24a47,47,0,0,0,6.8-4.87h0a.41.41,0,0,1,.56.6,47.52,47.52,0,0,1-6.78,5.18c-2.37,1.56-4.8,3-7.19,4.48a.67.67,0,0,1-.71-1.14Z" transform="translate(-194.96 -301.28)"/><path class="cls-3" d="M309.24,450.58a51.66,51.66,0,0,1-5.72,16.49.21.21,0,1,1-.38-.2,51,51,0,0,0,5.56-16.38.27.27,0,0,1,.54.08Z" transform="translate(-194.96 -301.28)"/><path class="cls-3" d="M328.08,376a23.9,23.9,0,0,1-4,.94c-.66.12-1.33.18-2,.26s-1.33.12-2,.16h.14c-1.44.21-2.88.41-4.33.55s-2.91.24-4.37.32l-4.38.21a16.49,16.49,0,0,1-4.42-.21.29.29,0,0,1-.24-.36.3.3,0,0,1,.17-.21,17,17,0,0,1,4.25-1.25l4.31-.81c1.43-.27,2.87-.53,4.32-.72s2.89-.35,4.34-.49H320c.67,0,1.34,0,2,.08s1.34.09,2,.19a22.21,22.21,0,0,1,4,.78.3.3,0,0,1,.2.38A.34.34,0,0,1,328.08,376Z" transform="translate(-194.96 -301.28)"/><path class="cls-3" d="M266.37,375.41a22.21,22.21,0,0,1,4-.78c.67-.1,1.34-.13,2-.19s1.34-.06,2-.08h.15c1.45.14,2.9.28,4.34.49s2.89.45,4.32.72l4.31.81a17,17,0,0,1,4.25,1.25.31.31,0,0,1,.15.41.36.36,0,0,1-.22.16,16.56,16.56,0,0,1-4.43.21l-4.37-.21c-1.46-.08-2.92-.16-4.37-.32s-2.89-.34-4.33-.55h.14c-.67,0-1.33-.08-2-.16s-1.34-.14-2-.26a23.9,23.9,0,0,1-4-.94.31.31,0,0,1-.19-.39A.27.27,0,0,1,266.37,375.41Z" transform="translate(-194.96 -301.28)"/><path class="cls-3" d="M200.74,510.42,209.86,492a30.16,30.16,0,0,1,8.25-7.78,34,34,0,0,1,5.09-2.62l1.33-.51c.45-.16.93-.29,1.4-.43l2.8-.86L251.16,473l.1,0h0l7.5-4.1,1.25-.69.62-.34.2-.11.21.19.52.47,1.06,1c.77.65,1.5,1.22,2.27,1.81,1.54,1.15,3.12,2.24,4.75,3.25A55.73,55.73,0,0,0,280,479.45a37.4,37.4,0,0,0,11.31,2.35c1,0,1.94.16,2.89.1l2.85-.09a26.89,26.89,0,0,1,2.81.09c1,0,1.94,0,2.92,0a40.32,40.32,0,0,0,11.29-2.43,55.68,55.68,0,0,0,10.33-5.09,61.53,61.53,0,0,0,8.81-6.63l9.53,5.21h0l.09,0,22.43,6.84,2.8.86c.47.14.95.27,1.4.43l1.33.51a34,34,0,0,1,5.09,2.62,33.41,33.41,0,0,1,4.52,3.52c.69.66,1.37,1.34,2,2.06a21.53,21.53,0,0,1,1.72,2.18l9.13,18.43h1.5l-9.45-19.09a22.94,22.94,0,0,0-1.89-2.41c-.66-.76-1.37-1.47-2.09-2.15a32.44,32.44,0,0,0-10-6.41l-1.41-.53c-.47-.17-.94-.3-1.4-.44l-2.81-.86-22.36-6.82-9.89-5.41a.67.67,0,0,0-.78.1h0a59.62,59.62,0,0,1-9,6.79,54.51,54.51,0,0,1-10.08,5,38.7,38.7,0,0,1-10.92,2.35c-.92.06-1.87.08-2.77.05s-1.92-.14-2.89-.1l-2.84.09a9.44,9.44,0,0,1-1.41,0l-1.4-.07a35.78,35.78,0,0,1-10.92-2.28,53.93,53.93,0,0,1-10.09-4.95c-1.59-1-3.15-2.06-4.65-3.19-.74-.56-1.5-1.16-2.19-1.73l-1-1-.53-.49a6.8,6.8,0,0,0-.66-.53l-.07,0a.72.72,0,0,0-.39-.06c-.36.07-.25.08-.28.08l-.08.05-.16.08-.31.17-.63.34-1.25.69-2.5,1.37-4.94,2.7-22.36,6.82-2.81.86c-.46.14-.93.27-1.4.44l-1.41.53a33.74,33.74,0,0,0-5.31,2.74,31.36,31.36,0,0,0-8.68,8.2l0,.05v0l-9.44,19.05Zm60.44-42.92h0S261.23,467.48,261.18,467.5Z" transform="translate(-194.96 -301.28)"/><path class="cls-3" d="M297.56,490.56a67.89,67.89,0,0,1-19.2-2.8,77.4,77.4,0,0,1-27.87-14.93.68.68,0,0,1,0-.95.67.67,0,0,1,1,0,76.3,76.3,0,0,0,27.39,14.65c15.28,4.47,38.85,5.63,64.4-14.25a.67.67,0,0,1,.82,1.06C327.11,486.46,311,490.56,297.56,490.56Z" transform="translate(-194.96 -301.28)"/><path class="cls-3" d="M372.78,510.42c-2.58-6.78-2.34-14.39-1.67-21.62.25-2.73.59-5.35,1.94-7.51a.28.28,0,0,0-.09-.38.26.26,0,0,0-.37.09c-1.41,2.26-1.76,4.95-2,7.75-.67,7.23-.91,14.83,1.63,21.67Z" transform="translate(-194.96 -301.28)"/><path class="cls-3" d="M224.33,488.8c.67,7.23.91,14.84-1.67,21.62h.58c2.54-6.84,2.3-14.44,1.63-21.67-.26-2.8-.61-5.49-2-7.75a.26.26,0,0,0-.37-.09.28.28,0,0,0-.09.38C223.74,483.45,224.08,486.07,224.33,488.8Z" transform="translate(-194.96 -301.28)"/><path class="cls-3" d="M254.61,475.51a.27.27,0,0,1-.23-.12.28.28,0,0,1,.08-.38l8.82-5.54a.28.28,0,0,1,.38.09.26.26,0,0,1-.09.37l-8.82,5.54A.23.23,0,0,1,254.61,475.51Z" transform="translate(-194.96 -301.28)"/><path class="cls-3" d="M260.8,479.55a.29.29,0,0,1-.22-.11.27.27,0,0,1,.06-.38l8-5.91a.26.26,0,0,1,.37.05.27.27,0,0,1-.05.38l-8,5.92A.3.3,0,0,1,260.8,479.55Z" transform="translate(-194.96 -301.28)"/><path class="cls-3" d="M268.21,483.4a.25.25,0,0,1-.19-.09.27.27,0,0,1,0-.38l6.67-6.48a.27.27,0,1,1,.37.39l-6.66,6.48A.27.27,0,0,1,268.21,483.4Z" transform="translate(-194.96 -301.28)"/><path class="cls-3" d="M277.22,486.87a.27.27,0,0,1-.15-.05.27.27,0,0,1-.07-.38l4.79-6.85a.27.27,0,0,1,.37-.07.27.27,0,0,1,.07.38l-4.79,6.85A.25.25,0,0,1,277.22,486.87Z" transform="translate(-194.96 -301.28)"/><path class="cls-3" d="M287,489.12a.2.2,0,0,1-.11,0,.25.25,0,0,1-.13-.35l3.37-7.32a.28.28,0,0,1,.36-.14.27.27,0,0,1,.14.36L287.23,489A.28.28,0,0,1,287,489.12Z" transform="translate(-194.96 -301.28)"/><path class="cls-3" d="M339.06,475.51a.23.23,0,0,1-.14,0l-8.82-5.54a.26.26,0,0,1-.09-.37.29.29,0,0,1,.38-.09l8.82,5.54a.28.28,0,0,1,.08.38A.27.27,0,0,1,339.06,475.51Z" transform="translate(-194.96 -301.28)"/><path class="cls-3" d="M332.87,479.55a.3.3,0,0,1-.16-.05l-8-5.92a.27.27,0,0,1-.05-.38.26.26,0,0,1,.37-.05l8,5.91a.27.27,0,0,1,.06.38A.29.29,0,0,1,332.87,479.55Z" transform="translate(-194.96 -301.28)"/><path class="cls-3" d="M325.46,483.4a.27.27,0,0,1-.19-.08l-6.67-6.48a.27.27,0,0,1,.38-.39l6.66,6.48a.27.27,0,0,1,0,.38A.25.25,0,0,1,325.46,483.4Z" transform="translate(-194.96 -301.28)"/><path class="cls-3" d="M316.45,486.87a.25.25,0,0,1-.22-.12l-4.79-6.85a.27.27,0,0,1,.07-.38.27.27,0,0,1,.37.07l4.79,6.85a.27.27,0,0,1-.07.38A.27.27,0,0,1,316.45,486.87Z" transform="translate(-194.96 -301.28)"/><path class="cls-3" d="M306.69,489.12a.28.28,0,0,1-.25-.16l-3.38-7.32a.27.27,0,0,1,.14-.36.28.28,0,0,1,.36.14l3.37,7.32a.25.25,0,0,1-.13.35A.23.23,0,0,1,306.69,489.12Z" transform="translate(-194.96 -301.28)"/><path class="cls-3" d="M297.49,490.43a.27.27,0,0,1-.27-.27v-9a.27.27,0,1,1,.54,0v9A.27.27,0,0,1,297.49,490.43Z" transform="translate(-194.96 -301.28)"/><polygon class="cls-3" points="135 165.47 138.07 164.91 136.66 166.48 135 165.47"/><polygon class="cls-3" points="69.14 165.47 66.07 164.91 67.48 166.48 69.14 165.47"/><path class="cls-3" d="M277.34,409.24a17.15,17.15,0,1,1,17.15-17.15A17.18,17.18,0,0,1,277.34,409.24Zm0-33.08a15.93,15.93,0,1,0,15.93,15.93A15.95,15.95,0,0,0,277.34,376.16Z" transform="translate(-194.96 -301.28)"/><polygon class="cls-3" points="66.21 87.7 64.04 87.67 64.04 84.02 67.01 84.05 66.21 87.7"/><path class="cls-3" d="M260.39,387.15a18.8,18.8,0,0,1-3.93-1.62,21,21,0,0,1-3.58-2.34L253,383a20.58,20.58,0,0,1,4.07,1.31,18.71,18.71,0,0,1,3.73,2Z" transform="translate(-194.96 -301.28)"/><path class="cls-3" d="M318.37,409.24a17.15,17.15,0,1,1,17.15-17.15A17.18,17.18,0,0,1,318.37,409.24Zm0-33.08a15.93,15.93,0,1,0,15.93,15.93A15.95,15.95,0,0,0,318.37,376.16Z" transform="translate(-194.96 -301.28)"/><polygon class="cls-3" points="139.59 87.7 141.76 87.67 141.76 84.02 138.79 84.05 139.59 87.7"/><path class="cls-3" d="M334.94,386.33a18.71,18.71,0,0,1,3.73-2,20.8,20.8,0,0,1,4.07-1.31l.1.19a20.65,20.65,0,0,1-3.59,2.34,18.71,18.71,0,0,1-3.92,1.62Z" transform="translate(-194.96 -301.28)"/><path class="cls-3" d="M301.92,389.75a.52.52,0,0,1-.21,0,10.15,10.15,0,0,0-7.62,0,.61.61,0,0,1-.56-1.08c.15-.08,3.61-1.84,8.6,0a.6.6,0,0,1,.36.78A.61.61,0,0,1,301.92,389.75Z" transform="translate(-194.96 -301.28)"/><ellipse class="cls-3" cx="84.93" cy="90.14" rx="5.41" ry="7.96"/><path class="cls-8" d="M285.7,389.36a1.94,1.94,0,1,1-1.87-2.44A2.22,2.22,0,0,1,285.7,389.36Z" transform="translate(-194.96 -301.28)"/><path class="cls-3" d="M274.16,399.53a37.84,37.84,0,0,1,5.2-.34q2.59,0,5.19.12a.41.41,0,1,1,0,.81h0c-1.71-.17-3.42-.28-5.14-.34a38.14,38.14,0,0,0-5.13.12h0a.19.19,0,0,1-.21-.17A.18.18,0,0,1,274.16,399.53Z" transform="translate(-194.96 -301.28)"/><path class="cls-3" d="M320.89,391.63c0,4.39-2.42,7.95-5.41,7.95s-5.41-3.56-5.41-7.95,2.42-8,5.41-8S320.89,387.23,320.89,391.63Z" transform="translate(-194.96 -301.28)"/><path class="cls-8" d="M322.29,389.14a1.94,1.94,0,1,1-1.88-2.44A2.21,2.21,0,0,1,322.29,389.14Z" transform="translate(-194.96 -301.28)"/><path class="cls-3" d="M309.76,399.53a37.74,37.74,0,0,1,5.2-.34q2.6,0,5.19.12a.41.41,0,0,1,.39.42.42.42,0,0,1-.43.39h0c-1.71-.17-3.42-.28-5.14-.34a38.1,38.1,0,0,0-5.13.12h0a.19.19,0,0,1-.2-.17A.18.18,0,0,1,309.76,399.53Z" transform="translate(-194.96 -301.28)"/><path class="cls-3" d="M292.3,423.92a12.64,12.64,0,0,0,8.79,1.14.11.11,0,0,1,.15.1.12.12,0,0,1-.09.15,13.18,13.18,0,0,1-9.24-.59.45.45,0,0,1-.22-.59.44.44,0,0,1,.58-.22Z" transform="translate(-194.96 -301.28)"/></g></svg>