<svg id="Layer_1" data-name="Layer 1" xmlns="http://www.w3.org/2000/svg" xmlns:xlink="http://www.w3.org/1999/xlink" viewBox="0 0 204.09 208.85"><defs><style>.cls-1{fill:#f6efe9;}.cls-2{clip-path:url(#clip-path);}.cls-3{fill:#0a0a10;}.cls-4{fill:#f9bf99;}.cls-5{fill:#c07e5e;}.cls-6{fill:#d86927;}.cls-7{fill:#af5025;}.cls-8{fill:none;stroke:#0a0a10;stroke-linecap:round;stroke-linejoin:round;stroke-width:1.35px;}.cls-9{fill:#f4efe9;}</style><clipPath id="clip-path" transform="translate(-195.59 -307.35)"><circle class="cls-1" cx="297.64" cy="409.39" r="102.04"/></clipPath></defs><circle class="cls-1" cx="102.04" cy="102.04" r="102.04"/><g class="cls-2"><path class="cls-3" d="M261.11,408.27c1.69,8.41,3.35,17.28.66,25.42a25.39,25.39,0,0,1-18.28,16.5c-3.86.85-7.9.77-11.7,1.86-7.6,2.18-13.1,8.58-18.14,14.67a6.23,6.23,0,0,0-1.74,3.28,5.51,5.51,0,0,0,.47,2.32c2.9,7.76,9.75,13.55,17.36,16.81s16,4.27,24.24,4.83c12.43.84,26.09.31,35.59-7.75,4.6-3.91,7.76-9.26,10.11-14.81,5.21-12.31,6.77-25.86,7.23-39.22.44-12.76-.17-26-5.79-37.46a32.93,32.93,0,0,0-10-12.44c-6-4.3-13.53-5.8-20.88-6.24-3-.17-6.16-.17-8.9,1.1-5.24,2.43-5,6.87-4.11,11.59C258.54,395.24,259.8,401.76,261.11,408.27Z" transform="translate(-195.59 -307.35)"/><path class="cls-4" d="M297.54,494.66l-.68,0a.61.61,0,0,1-.24-.06.18.18,0,0,0-.1,0c-5.07-.33-22.2-1.87-29.92-7.49l-2.38-1.76-.13-.1c-4.33-3.2-8.42-6.22-12.82-8.35l-.75-.87c-1-1.15-2-2.33-2.92-3.56a20.29,20.29,0,0,0,10.12-3.84c1-.39,2-.82,3-1.27,1.54-.72,3-1.49,4.4-2.31a46.72,46.72,0,0,0,4.11-2.8c2.49-1.9,4.85-4.05,7-6.08a.23.23,0,0,0,.08-.18l-.29-19.17c0-.12,0-.25,0-.38a3.47,3.47,0,0,1,0-.72,1.47,1.47,0,0,1,.16-.49,1.29,1.29,0,0,0,.11-1.09,2.27,2.27,0,0,0-.7-.77l-.08-.06a17.59,17.59,0,0,1-1.92-1.94l-.75-.84c-.67-.71-1.39-1.38-2.09-2s-1.36-1.27-2-1.94a34.65,34.65,0,0,1-3-3.73c-2.5-3.57-4.71-7.41-6.85-11.13l-.62-1.07a.78.78,0,0,0-.41-.39.47.47,0,0,0-.17,0,1.07,1.07,0,0,0-.31.06l-.23.08a3.57,3.57,0,0,1-1.05.23,2.17,2.17,0,0,1-.81-.18,4.52,4.52,0,0,1-2-1.76,16.18,16.18,0,0,1-1.12-2.08l-.12-.27c-.38-.79-.73-1.6-1.07-2.41-1-2.5-2-5.08-2.83-7.58l-.82-2.32c-.66-1.85-1.17-3.42-1.58-5.05a21.17,21.17,0,0,1-.71-5.3,7.49,7.49,0,0,1,1.8-5.13,5.63,5.63,0,0,1,2.38-1.51,4.32,4.32,0,0,1,1.34-.21H251a.21.21,0,0,0,.17-.07.23.23,0,0,0,.07-.19c-.33-3.19-.54-6.13-.63-9-.07-2.57,0-4.85.1-7a35.55,35.55,0,0,1,1.07-6.95,17,17,0,0,1,1.29-3.36,42.86,42.86,0,0,1,5.7-7.84l.15-.17a46.14,46.14,0,0,1,8.25-7.92,42.85,42.85,0,0,1,9.62-5A61.74,61.74,0,0,1,299,325.12a52.34,52.34,0,0,1,9.76.9c11,2.1,21,8,27.23,16.31,5.81,7.65,8.56,14.42,8.65,21.29a107.68,107.68,0,0,1-.71,13,.25.25,0,0,0,.08.21.23.23,0,0,0,.16.06h.05a3.86,3.86,0,0,1,.84-.08,4.62,4.62,0,0,1,1.38.21,5.7,5.7,0,0,1,2.39,1.54,7.54,7.54,0,0,1,1.77,5.18,15.45,15.45,0,0,1-.2,2.69c-.13.85-.31,1.73-.54,2.63-.41,1.64-.93,3.22-1.59,5.09-.27.73-.53,1.47-.79,2.2-.9,2.56-1.84,5.21-2.91,7.76q-.51,1.23-1.08,2.43a14.29,14.29,0,0,1-1.29,2.34,4.87,4.87,0,0,1-.91,1,3.14,3.14,0,0,1-1.21.61,3.93,3.93,0,0,1-1,.13,1.88,1.88,0,0,1-.34,0,2.79,2.79,0,0,1-1-.27.22.22,0,0,0-.11,0h-.08a.25.25,0,0,0-.14.13A54.89,54.89,0,0,1,331.47,421c-1.43,2-2.9,3.84-4.37,5.53s-3.24,3.51-4.89,5.07c-.71.66-1.66,1.52-2.65,2.31a.26.26,0,0,0-.09.18.27.27,0,0,0,.08.19.69.69,0,0,1,.25.53l-.32,21.49a.23.23,0,0,0,.08.17c2.19,2,4.53,4.17,7,6.08a44,44,0,0,0,4.05,2.78,42.63,42.63,0,0,0,4.34,2.27c1.43.63,2.91,1.21,4.53,1.76a2.2,2.2,0,0,0,1.42,1.1c1.87.51,3.79.89,5.65,1.25l1.87.38a24.09,24.09,0,0,1-3.12,3.66,12.61,12.61,0,0,1-.92.87c-4.6,2.1-8.9,5.28-13.45,8.65l-2.52,1.85c-7.71,5.62-24.84,7.16-29.91,7.49a.21.21,0,0,0-.11,0,.43.43,0,0,1-.22.06Z" transform="translate(-195.59 -307.35)"/><path class="cls-5" d="M318.81,433.75s-4.87,29.75-27.95,24.45c0,0-10.84-3-14.34-14.1-.17-2.17-.09-4.76-.26-6.93a4.76,4.76,0,0,1,1-2.53c.52-.44,1.71,1.27,2.06,1.59a18.49,18.49,0,0,0,2.56,2,19.44,19.44,0,0,0,3,1.61c1.64.7,3.37,1.17,5,1.85,2.56,1.06,5.42,3.1,8.33,2.25l3.21-1c2.13-.66,4.25-1.38,6.31-2.24A40.49,40.49,0,0,0,318.81,433.75Z" transform="translate(-195.59 -307.35)"/><path class="cls-5" d="M294.9,403.68,293.52,382l-4.77-3.8-14.92-3.85-9.38,1.36,14.43-5,9.07,3.94,4.88,3.94,3,2.88S295.84,399.93,294.9,403.68Z" transform="translate(-195.59 -307.35)"/><path class="cls-5" d="M302.56,410.39a5.63,5.63,0,0,1-1.84.21,2.67,2.67,0,0,0-.4,0,1.91,1.91,0,0,0-.41.11,6.8,6.8,0,0,1-2.18.23h-.37a6.8,6.8,0,0,1-2.18-.23,1.76,1.76,0,0,0-.41-.11,2.64,2.64,0,0,0-.4,0,5.57,5.57,0,0,1-1.83-.21,1.56,1.56,0,0,0,.78,1.29,8.47,8.47,0,0,0,4.13,1.07h.19a8.48,8.48,0,0,0,4.14-1.07A1.59,1.59,0,0,0,302.56,410.39Z" transform="translate(-195.59 -307.35)"/><polygon class="cls-5" points="100.6 120.72 104.49 120.58 103.79 122.81 102.58 123.47 101.04 124.14 100.6 120.72"/><polygon class="cls-5" points="108.13 78.64 110.57 77.88 130.38 72.96 124.17 71.5 108.88 76.19 108.13 78.64"/><path class="cls-6" d="M384.84,485.45c-5.63-8.26-30-11.26-30-11.26l.75-2.25-6.19-1.88-.94,2.06c-15.91,20.69-47.8,22.06-51.45,22.14-3.55-.08-34.61-1.45-50.52-22.14l-.94-2.06-6.2,1.88.76,2.25S215,478.69,209.32,487s-11.08,25.34-11.08,25.34H396.69S390.47,493.7,384.84,485.45Z" transform="translate(-195.59 -307.35)"/><path class="cls-7" d="M263.86,515.85a58.08,58.08,0,0,1-19-4.39c-3.72-1.67-7.35-4.06-9.23-7.69a15.91,15.91,0,0,1-1.55-7.61c.12-6.6,3.2-13.24,8.63-17,7.83,6.87,17.26,11.64,26.82,15.76,6.33,2.72,12.91,2.94,19.75,3.71a67.31,67.31,0,0,0,21.15-.75c6.48-1.26,14.24-2.41,20.14-5.38a87.7,87.7,0,0,0,10-5.52,39.62,39.62,0,0,1,5.19-3.21c1.82-.84,1,.55.23,1.56-2.18,2.74-5.3,5.09-8,7.29a103,103,0,0,1-9,6.55,106,106,0,0,1-40.61,15.68A100.91,100.91,0,0,1,263.86,515.85Z" transform="translate(-195.59 -307.35)"/><path class="cls-7" d="M388.58,491.92l.22.15.26.14a25.92,25.92,0,0,0-9.42-10.73,32.82,32.82,0,0,0-9-4.07c-.63-.18-3.44-1.22-3.75-.48a5.24,5.24,0,0,0-.62-.17l.61.41c.09.47,1,1.15,1.23,1.52.43.57.82,1.19,1.2,1.8,2.22,3.59,5.87,6,9.44,8.25a16.55,16.55,0,0,0,2.1,1.17c2.49,1.1,5.39,1,7.86,2.11A.94.94,0,0,0,388.58,491.92Z" transform="translate(-195.59 -307.35)"/><path class="cls-7" d="M388.8,492.07l0,0-.08,0,.93.87a1,1,0,0,0-.55-.68s0,0,0,.05Z" transform="translate(-195.59 -307.35)"/><path class="cls-7" d="M207.36,491.92l-.22.15-.25.14a25.9,25.9,0,0,1,9.41-10.73,32.88,32.88,0,0,1,9-4.07c.63-.18,3.43-1.22,3.74-.48a5.24,5.24,0,0,1,.62-.17l-.61.41c-.09.47-1,1.15-1.23,1.52-.43.57-.81,1.19-1.19,1.8-2.23,3.59-5.87,6-9.45,8.25a16.55,16.55,0,0,1-2.1,1.17c-2.48,1.1-5.38,1-7.86,2.11Z" transform="translate(-195.59 -307.35)"/><path class="cls-7" d="M207.14,492.07l0,0,.08,0-.93.87a1,1,0,0,1,.56-.68l0,.05Z" transform="translate(-195.59 -307.35)"/><path class="cls-8" d="M314.87,497.54" transform="translate(-195.59 -307.35)"/><path class="cls-3" d="M340.56,444.57c-2.63,0-3.32-12.16-3.32-18.59a71.05,71.05,0,0,1,1.37-15.46.4.4,0,0,1,.78.2A70.52,70.52,0,0,0,338.05,426c0,11.67,1.63,17.78,2.51,17.78s2.51-6.11,2.51-17.78-1.63-17.77-2.51-17.77a.41.41,0,1,1,0-.81c2.63,0,3.32,12.16,3.32,18.58S343.19,444.57,340.56,444.57Z" transform="translate(-195.59 -307.35)"/><path class="cls-3" d="M254.68,444.71c-2.63,0-3.32-12.16-3.32-18.59s.69-18.59,3.32-18.59a.41.41,0,1,1,0,.82c-.87,0-2.51,6.1-2.51,17.77s1.64,17.77,2.51,17.77,2.51-6.1,2.51-17.77a70.69,70.69,0,0,0-1.34-15.27.4.4,0,0,1,.29-.49.41.41,0,0,1,.5.29A71.73,71.73,0,0,1,258,426.12C258,432.55,257.31,444.71,254.68,444.71Z" transform="translate(-195.59 -307.35)"/><path class="cls-3" d="M251.79,378.17a3.8,3.8,0,0,0-4,1.1,6.64,6.64,0,0,0-1.6,4.41c-.07,3.37,1,6.77,2.05,10.08s2.17,6.68,3.45,9.93a34.83,34.83,0,0,0,2.17,4.71,4.08,4.08,0,0,0,1.76,1.64,2.4,2.4,0,0,0,2.23-.05l.33.49a3,3,0,0,1-2.82.16,4.88,4.88,0,0,1-2.09-1.85,17.49,17.49,0,0,1-1.25-2.38c-.38-.8-.73-1.61-1.07-2.42-1.36-3.27-2.48-6.6-3.66-9.91s-2.31-6.74-2.3-10.44a7.79,7.79,0,0,1,1.86-5.28,5.84,5.84,0,0,1,2.48-1.58,4.54,4.54,0,0,1,3.06.09Z" transform="translate(-195.59 -307.35)"/><path class="cls-3" d="M248.27,384.9a3.82,3.82,0,0,1,.73-4.29,2.24,2.24,0,0,1,3.95,1,.41.41,0,0,1-.79.19v0a1.69,1.69,0,0,0-1.08-1.31,1.82,1.82,0,0,0-1.7.52,3.4,3.4,0,0,0-.84,3.77.15.15,0,0,1-.07.19A.16.16,0,0,1,248.27,384.9Z" transform="translate(-195.59 -307.35)"/><path class="cls-3" d="M254,391.42a3.27,3.27,0,0,0-1.68,2.85,6.12,6.12,0,0,0,1,3.29c.6,1,1.36,1.95,2,3s1.07,2.26,1.92,2.83a.41.41,0,0,1,.11.57.41.41,0,0,1-.56.11l0,0a4.18,4.18,0,0,1-1.19-1.56c-.28-.56-.51-1.08-.82-1.58-.59-1-1.32-2-1.9-3.08a6.56,6.56,0,0,1-.91-3.55,3.51,3.51,0,0,1,1.94-3,.09.09,0,0,1,.11.05A.08.08,0,0,1,254,391.42Z" transform="translate(-195.59 -307.35)"/><path class="cls-3" d="M343.41,376.87a4.51,4.51,0,0,1,3.07-.08,5.85,5.85,0,0,1,2.5,1.6,7.92,7.92,0,0,1,1.84,5.33c0,3.72-1.19,7.16-2.36,10.5s-2.32,6.69-3.7,10c-.34.82-.7,1.64-1.08,2.44a14.65,14.65,0,0,1-1.31,2.38,5.2,5.2,0,0,1-1,1,3.15,3.15,0,0,1-1.3.66,3.57,3.57,0,0,1-2.81-.34l.33-.5a3,3,0,0,0,2.31.22,3.36,3.36,0,0,0,1.86-1.47,14.19,14.19,0,0,0,1.2-2.29c.36-.8.7-1.61,1-2.43,1.29-3.27,2.36-6.64,3.49-10s2.15-6.75,2.09-10.15a6.68,6.68,0,0,0-1.58-4.46,3.79,3.79,0,0,0-4.07-1.12Z" transform="translate(-195.59 -307.35)"/><path class="cls-3" d="M347.22,384.78a3.4,3.4,0,0,0-.84-3.77,1.84,1.84,0,0,0-1.71-.52,1.73,1.73,0,0,0-1.08,1.31.41.41,0,0,1-.46.34.42.42,0,0,1-.34-.47v0a2.24,2.24,0,0,1,3.95-1,3.82,3.82,0,0,1,.73,4.29.14.14,0,0,1-.19.06A.14.14,0,0,1,347.22,384.78Z" transform="translate(-195.59 -307.35)"/><path class="cls-3" d="M341.85,391.26a3.53,3.53,0,0,1,1.94,3,6.56,6.56,0,0,1-.91,3.55c-.58,1.09-1.31,2.06-1.9,3.08-.31.5-.54,1-.82,1.58A4.18,4.18,0,0,1,339,404a.4.4,0,0,1-.57-.07.41.41,0,0,1,.08-.57l0,0c.85-.57,1.23-1.8,1.92-2.83s1.43-1.95,2-3a6.2,6.2,0,0,0,1-3.29,3.27,3.27,0,0,0-1.68-2.85.09.09,0,0,1,0-.11A.11.11,0,0,1,341.85,391.26Z" transform="translate(-195.59 -307.35)"/><path class="cls-3" d="M297.37,411.56h0a6,6,0,0,1-4.68-2.29.41.41,0,0,1,.08-.57.4.4,0,0,1,.57.08,5.14,5.14,0,0,0,4,2h0a6.42,6.42,0,0,0,4.24-1.72.4.4,0,0,1,.55.59A7.18,7.18,0,0,1,297.37,411.56Z" transform="translate(-195.59 -307.35)"/><path class="cls-3" d="M291.91,405.84c-.26.59-.58,1.18-.8,1.77a1.45,1.45,0,0,0,.37,1.59,3.74,3.74,0,0,0,3.28,1.11h0l-.38.43v-.16a.41.41,0,0,1,.39-.43.42.42,0,0,1,.43.38v.19a.37.37,0,0,1-.36.4h0a5,5,0,0,1-2.07-.34,3.8,3.8,0,0,1-1.68-1.26,2.56,2.56,0,0,1-.46-1,1.77,1.77,0,0,1,.16-1.08c.29-.61.64-1.16,1-1.74a.11.11,0,0,1,.15,0,.11.11,0,0,1,.05.14Z" transform="translate(-195.59 -307.35)"/><ellipse class="cls-3" cx="84.1" cy="81.74" rx="5.41" ry="7.96"/><path class="cls-9" d="M285.51,387a1.94,1.94,0,1,1-1.88-2.44A2.22,2.22,0,0,1,285.51,387Z" transform="translate(-195.59 -307.35)"/><path class="cls-3" d="M292.53,378.53l3.37,2.65a.37.37,0,0,1,.13.27v0c.06,3.76.07,7.5,0,11.25,0,1.88-.07,3.75-.15,5.63a46.7,46.7,0,0,1-.5,5.63.21.21,0,0,1-.24.17.2.2,0,0,1-.17-.24h0a49.16,49.16,0,0,0,.4-5.57c0-1.87.05-3.74.05-5.61,0-3.74-.1-7.49-.23-11.22l.14.28-2.94-3.12a.08.08,0,0,1,0-.12A.1.1,0,0,1,292.53,378.53Z" transform="translate(-195.59 -307.35)"/><path class="cls-3" d="M274,397.2a37.7,37.7,0,0,1,5.19-.34c1.74,0,3.47,0,5.2.12a.4.4,0,0,1,.38.42.4.4,0,0,1-.42.39h0c-1.71-.17-3.43-.29-5.14-.34a38.1,38.1,0,0,0-5.13.12h0a.19.19,0,0,1-.2-.17A.18.18,0,0,1,274,397.2Z" transform="translate(-195.59 -307.35)"/><path class="cls-3" d="M303.82,405.73c.31.58.66,1.13.95,1.74a1.85,1.85,0,0,1,.15,1.08,2.54,2.54,0,0,1-.45,1,3.8,3.8,0,0,1-1.68,1.26,5.09,5.09,0,0,1-2.08.34h0a.38.38,0,0,1-.38-.38v-.21a.4.4,0,0,1,.43-.38.4.4,0,0,1,.38.43v.16l-.38-.43h0a3.76,3.76,0,0,0,3.28-1.11,1.44,1.44,0,0,0,.36-1.59c-.22-.59-.53-1.18-.8-1.77h0a.11.11,0,0,1,.2-.1Z" transform="translate(-195.59 -307.35)"/><ellipse class="cls-3" cx="119.69" cy="81.95" rx="5.41" ry="7.96"/><path class="cls-9" d="M322.1,386.81a1.94,1.94,0,1,1-1.88-2.44A2.21,2.21,0,0,1,322.1,386.81Z" transform="translate(-195.59 -307.35)"/><path class="cls-3" d="M309.56,397.2a37.94,37.94,0,0,1,5.2-.34c1.73,0,3.47,0,5.2.12a.4.4,0,0,1,.38.42.41.41,0,0,1-.43.39h0c-1.71-.17-3.43-.29-5.14-.34a38.25,38.25,0,0,0-5.14.12h0a.2.2,0,0,1-.21-.17A.19.19,0,0,1,309.56,397.2Z" transform="translate(-195.59 -307.35)"/><path class="cls-3" d="M291.87,420.85a43.59,43.59,0,0,0,5.83.41,20,20,0,0,0,5.74-.7l-.21.15,1.68-2a.14.14,0,0,1,.2,0,.14.14,0,0,1,0,.18l-1.24,2.33-.12.21a0,0,0,0,1-.07,0,.06.06,0,0,1,0-.07h0a20.48,20.48,0,0,1-6,.92,46.48,46.48,0,0,1-6-.25.57.57,0,1,1,.12-1.14h0Z" transform="translate(-195.59 -307.35)"/><path class="cls-3" d="M287.06,447.77a51.18,51.18,0,0,0,5.57,16.38.23.23,0,0,1-.09.29.21.21,0,0,1-.29-.08,51.72,51.72,0,0,1-5.72-16.5.27.27,0,0,1,.53-.09Z" transform="translate(-195.59 -307.35)"/><path class="cls-3" d="M320.06,434.83l-.43,29a.53.53,0,0,1-1.05,0l-.43-29a1,1,0,0,1,1.91,0Z" transform="translate(-195.59 -307.35)"/><path class="cls-3" d="M347.93,472.79A64.75,64.75,0,0,1,332,467c-5-2.75-9.21-6.67-13.27-10.54a.41.41,0,0,1,0-.58.4.4,0,0,1,.57,0c4.12,3.81,8.31,7.6,13.23,10.19a63.24,63.24,0,0,0,15.77,5.4.67.67,0,1,1-.3,1.31Z" transform="translate(-195.59 -307.35)"/><path class="cls-3" d="M309.25,447.86a52,52,0,0,1-5.72,16.5.21.21,0,0,1-.29.08.21.21,0,0,1-.09-.29,50.92,50.92,0,0,0,5.56-16.38.27.27,0,0,1,.31-.22.27.27,0,0,1,.23.31Z" transform="translate(-195.59 -307.35)"/><path class="cls-3" d="M292.65,479.43a9.08,9.08,0,0,0,9.92-.21.33.33,0,0,1,.45.07.32.32,0,0,1-.07.46l-.08,0a15.74,15.74,0,0,1-10.49.22.33.33,0,0,1-.22-.41.33.33,0,0,1,.41-.21Z" transform="translate(-195.59 -307.35)"/><path class="cls-3" d="M305.13,477.23c1.95-.23,3.9-.4,5.85-.57s3.91-.29,5.86-.41,3.91-.24,5.86-.31,3.92-.16,5.87-.19a.32.32,0,0,1,.33.31.33.33,0,0,1-.29.33c-1.95.18-3.9.32-5.86.45s-3.9.22-5.86.33-3.91.16-5.87.23-3.91.09-5.87.07a.12.12,0,0,1-.12-.12A.12.12,0,0,1,305.13,477.23Z" transform="translate(-195.59 -307.35)"/><path class="cls-3" d="M291.4,477.47c-1.76,0-3.52,0-5.28-.07s-3.51-.14-5.27-.23-3.51-.19-5.26-.33-3.51-.27-5.26-.45a.32.32,0,0,1,0-.64c1.76,0,3.52.1,5.27.19s3.51.21,5.27.31,3.51.26,5.26.41,3.5.34,5.25.57a.12.12,0,0,1,.1.13A.13.13,0,0,1,291.4,477.47Z" transform="translate(-195.59 -307.35)"/><path class="cls-3" d="M297.53,499.73a.67.67,0,0,1-.68-.67.68.68,0,0,1,.68-.68A92.77,92.77,0,0,0,328,493.65c8.61-3,15.58-7,20.72-11.95l.8-.75a19.32,19.32,0,0,0,3.26-3.57,35.19,35.19,0,0,0,1.81-3.45c.21-.43.41-.86.63-1.29l-5.43-1.52a41.49,41.49,0,0,1-9.1,9.32c-1.37,1-2.84,1.83-4.26,2.65l-2.28,1.34a92.23,92.23,0,0,1-9.82,5.26,52.51,52.51,0,0,1-10.77,3.19,108.68,108.68,0,0,1-16.65,2.06.65.65,0,0,1-.7-.64.67.67,0,0,1,.64-.7,107.2,107.2,0,0,0,16.44-2,52,52,0,0,0,10.5-3.1,90.87,90.87,0,0,0,9.68-5.19l2.27-1.33c1.41-.82,2.85-1.66,4.17-2.6A40.39,40.39,0,0,0,349,470a.68.68,0,0,1,.73-.26l6.66,1.88a.72.72,0,0,1,.44.38.66.66,0,0,1,0,.58c-.34.65-.66,1.31-1,2a36.78,36.78,0,0,1-1.88,3.57,20.81,20.81,0,0,1-3.48,3.84l-.79.74c-5.28,5.07-12.41,9.19-21.2,12.25A94.17,94.17,0,0,1,297.53,499.73Z" transform="translate(-195.59 -307.35)"/><path class="cls-3" d="M397,511.77a.69.69,0,0,1-.59-.34,73.46,73.46,0,0,1-4.55-10.55c-.63-1.71-1.29-3.48-2-5.18-2.67-6.45-5.7-10.67-9.54-13.26a28.56,28.56,0,0,0-6.1-2.95,128,128,0,0,0-18.87-5,.67.67,0,0,1,.27-1.32,128,128,0,0,1,19.07,5,29.73,29.73,0,0,1,6.38,3.09c4.07,2.75,7.26,7.16,10,13.86.72,1.73,1.38,3.51,2,5.23a71.78,71.78,0,0,0,4.47,10.36.67.67,0,0,1-.26.91A.66.66,0,0,1,397,511.77Z" transform="translate(-195.59 -307.35)"/><path class="cls-3" d="M277.47,434.83l-.43,29a.53.53,0,0,1-1.05,0l-.43-29a1,1,0,0,1,1.91,0Z" transform="translate(-195.59 -307.35)"/><path class="cls-3" d="M247.38,471.48a63.24,63.24,0,0,0,15.77-5.4c4.92-2.59,9.11-6.38,13.23-10.19a.41.41,0,0,1,.58,0,.42.42,0,0,1,0,.58c-4.06,3.87-8.24,7.79-13.27,10.54a64.75,64.75,0,0,1-16,5.76.67.67,0,0,1-.32-1.31Z" transform="translate(-195.59 -307.35)"/><path class="cls-3" d="M298.09,499.73a94.17,94.17,0,0,1-30.91-4.81c-8.79-3.06-15.92-7.18-21.2-12.25l-.79-.74a20.81,20.81,0,0,1-3.48-3.84,34.71,34.71,0,0,1-1.88-3.57c-.32-.68-.65-1.35-1-2a.63.63,0,0,1,0-.58.7.7,0,0,1,.43-.38l6.66-1.88a.68.68,0,0,1,.73.26,40.39,40.39,0,0,0,9.07,9.39c1.32.94,2.76,1.78,4.16,2.59l2.28,1.34a90.87,90.87,0,0,0,9.68,5.19,52,52,0,0,0,10.5,3.1,107.2,107.2,0,0,0,16.44,2,.67.67,0,0,1,.64.7.63.63,0,0,1-.7.64,108.68,108.68,0,0,1-16.65-2.06,52.2,52.2,0,0,1-10.76-3.19,91.42,91.42,0,0,1-9.83-5.26l-2.26-1.33c-1.44-.83-2.91-1.68-4.28-2.66a41.49,41.49,0,0,1-9.1-9.32l-5.43,1.52c.22.43.42.86.63,1.29a35.19,35.19,0,0,0,1.81,3.45,19.68,19.68,0,0,0,3.26,3.57l.8.75c5.14,4.93,12.11,8.95,20.72,11.95a92.77,92.77,0,0,0,30.46,4.73.68.68,0,0,1,.68.68A.67.67,0,0,1,298.09,499.73Z" transform="translate(-195.59 -307.35)"/><path class="cls-3" d="M198.67,511.77a.66.66,0,0,1-.33-.09.67.67,0,0,1-.26-.91,70.68,70.68,0,0,0,4.47-10.36c.64-1.72,1.29-3.5,2-5.23,2.77-6.7,6-11.11,10-13.86a29.73,29.73,0,0,1,6.38-3.09,128,128,0,0,1,19.07-5,.67.67,0,0,1,.27,1.32,128,128,0,0,0-18.87,5,28.56,28.56,0,0,0-6.1,2.95c-3.84,2.59-6.87,6.81-9.54,13.26-.7,1.7-1.36,3.47-2,5.18a73.46,73.46,0,0,1-4.55,10.55A.69.69,0,0,1,198.67,511.77Z" transform="translate(-195.59 -307.35)"/><path class="cls-3" d="M331.68,384.2a32.26,32.26,0,0,0-6.16-3.18c-.5-.19-1.11-.4-1.59-.56a3.7,3.7,0,0,0-1.2-.23,2.75,2.75,0,0,0-1.12.26c-.57.19-1.13.35-1.72.53-2.32.7-4.68,1.27-7.06,1.79l-3.56.79c-1.2.25-2.38.54-3.59.71l.54-.37a15.1,15.1,0,0,1-2.34,1.89.4.4,0,0,1-.59-.46,15.13,15.13,0,0,1,1.23-2.74.58.58,0,0,1,.25-.24l.3-.14c1.11-.52,2.25-.92,3.39-1.36l3.41-1.3c2.28-.86,4.57-1.68,6.89-2.36.58-.17,1.18-.36,1.78-.52.31-.08.52-.16,1-.26a5.5,5.5,0,0,1,1.4-.06,6.93,6.93,0,0,1,2.3.67A19.25,19.25,0,0,1,327,378a13.33,13.33,0,0,1,5.22,5.72.38.38,0,0,1-.19.51.38.38,0,0,1-.37,0Z" transform="translate(-195.59 -307.35)"/><path class="cls-3" d="M264.2,376.8a13.27,13.27,0,0,1,5.22-5.72,19.25,19.25,0,0,1,1.74-.94,6.86,6.86,0,0,1,2.3-.67,5.52,5.52,0,0,1,1.4.06c.53.1.73.18,1.05.26.59.16,1.19.35,1.77.52,2.33.68,4.62,1.5,6.9,2.36L288,374c1.13.44,2.28.84,3.39,1.36l.3.14a.58.58,0,0,1,.25.24,15.1,15.1,0,0,1,1.22,2.74.4.4,0,0,1-.26.5.39.39,0,0,1-.33,0,15.59,15.59,0,0,1-2.34-1.89l.55.37c-1.22-.17-2.4-.46-3.59-.71l-3.56-.79c-2.38-.52-4.74-1.09-7.07-1.79-.58-.18-1.14-.34-1.71-.53a2.75,2.75,0,0,0-1.12-.26,3.8,3.8,0,0,0-1.21.23c-.47.16-1.08.37-1.58.56a32.33,32.33,0,0,0-6.17,3.18h0a.39.39,0,0,1-.56-.49Z" transform="translate(-195.59 -307.35)"/><path class="cls-3" d="M349.51,470.34l6.09,1.33S352,488.4,321.09,495.72c0,0,19.12-7.17,23.61-15.24,0,0-34.22,28.39-83.82,5.68,0,0-9.31-2.58-16.79-15.88l2,.06s14.11,14.9,19.6,15.9c0,0,23.75,12.78,47.71,6C313.42,492.22,336.22,487.7,349.51,470.34Z" transform="translate(-195.59 -307.35)"/><path class="cls-3" d="M372.68,511.79a.28.28,0,0,1-.27-.23,40.83,40.83,0,0,1,8.17-30,.27.27,0,1,1,.43.33A40.28,40.28,0,0,0,373,511.49a.27.27,0,0,1-.23.3Z" transform="translate(-195.59 -307.35)"/><path class="cls-3" d="M223.7,511.79h0a.27.27,0,0,1-.24-.3,40.27,40.27,0,0,0-8.06-29.58.27.27,0,0,1,.43-.33,40.79,40.79,0,0,1,8.17,30A.27.27,0,0,1,223.7,511.79Z" transform="translate(-195.59 -307.35)"/><path class="cls-3" d="M343,358.35a28.6,28.6,0,0,0-.85-4.48,11.16,11.16,0,0,0-1.94-3.92.75.75,0,0,1-.07-.12v0a40.08,40.08,0,0,0-9.18-12.35,48,48,0,0,0-13-8.3A53.5,53.5,0,0,0,287.42,326a47,47,0,0,0-26.67,14.79c-.43.49-.81,1-1.22,1.51s-.83,1-1.17,1.54a36,36,0,0,0-2.07,3.27l-.93,1.69-.79,1.78a20.84,20.84,0,0,0-1.36,3.58,34,34,0,0,0-1.06,15.33v.08a177.66,177.66,0,0,0,2.22,19.47c1.07,6.45,2.36,12.88,3.88,19.23v0a52.55,52.55,0,0,0,6.34,12.16,70.47,70.47,0,0,0,9,10.48c.83.8,1.68,1.58,2.56,2.31l1.33,1.1,1.38,1a49.63,49.63,0,0,0,5.89,3.57,70.38,70.38,0,0,0,12.84,5.1h-.19a73.79,73.79,0,0,0,13-5,49.12,49.12,0,0,0,6-3.51l1.4-1c.46-.35.9-.74,1.35-1.1.9-.73,1.75-1.51,2.6-2.31a70.73,70.73,0,0,0,9.08-10.54,52.72,52.72,0,0,0,6.4-12.27v.05c1.94-8.2,3.59-16.49,4.73-24.84.56-4.18,1-8.37,1.28-12.57A68.06,68.06,0,0,0,343,358.35Zm1.55-.18a68.55,68.55,0,0,1,.13,12.81c-.3,4.24-.78,8.45-1.38,12.66-1.21,8.4-2.92,16.7-4.95,24.94v.05a53.71,53.71,0,0,1-6.64,12.5,71.79,71.79,0,0,1-9.3,10.63c-.86.8-1.74,1.6-2.66,2.33-.46.37-.91.76-1.38,1.11l-1.44,1a50.55,50.55,0,0,1-6.14,3.53,74.9,74.9,0,0,1-13.2,4.94.34.34,0,0,1-.2,0h0a71.23,71.23,0,0,1-13.05-5,50.23,50.23,0,0,1-6-3.58l-1.43-1L275.47,434c-.91-.73-1.78-1.52-2.63-2.32a71.81,71.81,0,0,1-9.22-10.56,53.71,53.71,0,0,1-6.57-12.42l0-.06c-1.57-6.4-2.89-12.83-4-19.32a178.75,178.75,0,0,1-2.35-19.61v.08a35.53,35.53,0,0,1,1-16,19.43,19.43,0,0,1,.63-2c.25-.66.52-1.23.79-1.86l.81-1.84,1-1.78A37.56,37.56,0,0,1,257,342.9a19.06,19.06,0,0,1,1.22-1.62c.42-.52.81-1.07,1.26-1.57a48.75,48.75,0,0,1,27.58-15.52,54.46,54.46,0,0,1,31.57,3.25,48.56,48.56,0,0,1,13.49,8.7,41.68,41.68,0,0,1,9.47,13l-.08-.14a13.75,13.75,0,0,1,1.3,2.13,15.56,15.56,0,0,1,.86,2.33A30.25,30.25,0,0,1,344.53,358.17Z" transform="translate(-195.59 -307.35)"/><path class="cls-3" d="M346.73,348.27a10.83,10.83,0,0,0-1.45-3.75,47.09,47.09,0,0,0-19.77-18.43c-8.07-4.13-19.19-6.28-28.25-7.1v0H297v0c-9,.81-18.61,3-26.67,7.09a47.05,47.05,0,0,0-19.78,18.43,11,11,0,0,0-1.45,3.75,12.74,12.74,0,0,0,.11,3.32c.46,3.73,1,7.46,1.45,11.18a54,54,0,0,0,.09,8.54c.41,3.52,1.2,7,1.82,10.53s1.27,7,1.94,10.49c.22,1.13.51,2.3.81,3.48.07.51.13,1,.18,1.51.12,1.12-.35,2.8.85,3.35a16.83,16.83,0,0,1,.18,1.84c0-.59,0-1.18,0-1.78l.28.08a15.74,15.74,0,0,0,.09-4.6c-.06-1.12-.1-2.25-.13-3.38a53.15,53.15,0,0,1,2.67-13.22c2.55-7.31,7.16-14.05,13.67-18.23a65.76,65.76,0,0,1,8.46-4.28c3.5-1.59,7-3.28,10.38-5.05a16.84,16.84,0,0,0,5-3.56,13.48,13.48,0,0,0,1.75,5.81,15,15,0,0,0,4,4.15c4,2.92,8.71,4.69,13.27,6.39,4.21,1.58,8.57,3.21,12.31,5.74a28.44,28.44,0,0,1,6.87,6.67c.33.78.63,1.56.91,2.36A56.79,56.79,0,0,1,339,396.44a16.06,16.06,0,0,0,0,4c0,.7,0,1.4-.05,2.09a11.87,11.87,0,0,1,.22-1.73c1.6-.39,1-2.25,1.17-3.46.23-2.16.61-4.31.92-6.46l0-.22v0q1.17-6.11,2.23-12.22a135.2,135.2,0,0,0,2.37-21.12q.38-2.83.74-5.68A12.74,12.74,0,0,0,346.73,348.27Zm-18,21.64c-3.82-2.59-8.23-4.24-12.49-5.83-4.5-1.69-9.16-3.43-13.07-6.29a13.74,13.74,0,0,1-3.82-3.92,13.11,13.11,0,0,1-1.71-6.41l.08-.14c1.2,2.12,3.58,3.56,5.82,4.73q5.13,2.65,10.38,5.05a65.76,65.76,0,0,1,8.46,4.28,33.22,33.22,0,0,1,11.38,12.9A29.07,29.07,0,0,0,328.75,369.91Z" transform="translate(-195.59 -307.35)"/></g></svg>