<svg id="Layer_1" data-name="Layer 1" xmlns="http://www.w3.org/2000/svg" xmlns:xlink="http://www.w3.org/1999/xlink" viewBox="0 0 205.53 213.02"><defs><style>.cls-1{fill:#f6efe9;}.cls-2{clip-path:url(#clip-path);}.cls-3{fill:#f9bf99;}.cls-4{fill:#c07e5e;}.cls-5{fill:#374022;}.cls-6{fill:#24291a;}.cls-7{fill:#0a0a10;}.cls-8{fill:#f4efe9;}</style><clipPath id="clip-path" transform="translate(-194.87 -303.49)"><circle class="cls-1" cx="297.64" cy="405.53" r="102.04"/></clipPath></defs><circle class="cls-1" cx="102.77" cy="102.04" r="102.04"/><g class="cls-2"><path class="cls-3" d="M350.33,388.76a11.93,11.93,0,0,0-.51-1.53,3.51,3.51,0,0,0-1-1.49,2.82,2.82,0,0,0-1.79-.56,4.57,4.57,0,0,0-1.73.35,8,8,0,0,0-2.52,1.67c0-.13,0-.26,0-.39.08-.86.14-1.72.17-2.58a56.24,56.24,0,0,0-.48-10.29,44.62,44.62,0,0,0-2.56-10,36.52,36.52,0,0,0-5.05-9.07,33.85,33.85,0,0,0-7.52-7.16,41,41,0,0,0-9.24-4.62,50,50,0,0,0-5-1.4l-1.25-.29c-.42-.09-.83-.19-1.26-.24l-2.54-.38c-.42,0-.84-.14-1.27-.17l-1.27-.1-2.55-.2c-.44-.05-.81,0-1.21,0l-1.18,0-2.43.05a.44.44,0,0,1,.12.28l-.41-.4H297v0a62.69,62.69,0,0,0-19.68,3.2,42.34,42.34,0,0,0-9.12,4.64,33.42,33.42,0,0,0-7.41,7.08A40.33,40.33,0,0,0,253.21,374a55.58,55.58,0,0,0-.54,10.23c.05,1.15.12,2.3.25,3.45a3.83,3.83,0,0,0-.28-.29,8.51,8.51,0,0,0-2.73-1.85,4.48,4.48,0,0,0-1.72-.35,2.82,2.82,0,0,0-1.79.56,3.51,3.51,0,0,0-1,1.49,13.77,13.77,0,0,0-.52,1.53,17.16,17.16,0,0,0-.27,6.3,58.81,58.81,0,0,0,1.11,6.09l.64,3c.22,1,.41,2,.67,3a22.79,22.79,0,0,0,2.16,5.85,13,13,0,0,0,1.9,2.51q.54.57,1.08,1.11a10.11,10.11,0,0,0,1.19,1.06,3.92,3.92,0,0,0,3.2.83,2.64,2.64,0,0,0,.84-.36l.65-.41a1.21,1.21,0,0,1,.54-.19c.17,0,.27,0,.28.1l.12-.24,1.41,6.7,1.06,5a14.24,14.24,0,0,0,2,4.85,14.88,14.88,0,0,0,1.66,2.05c.27.27.55.53.83.78,0,0,0,.05,0,.08,0,3.11.08,6.22.13,9.33l.23,9.32q.06,3,.09,5.95l-1.48,1.9c-.62.78-1.24,1.56-1.88,2.32s-1.3,1.52-2,2.27-1.34,1.49-2,2.27l.42.5.11-.07c4.55,3.61,38.06,28.14,75.21-.07l.13.08.42-.5c-.65-.77-1.32-1.51-2-2.26s-1.3-1.49-1.94-2.25-1.25-1.53-1.87-2.31l-1.59-2c.07-2.18.2-4.36.35-6.54.23-3.16.56-6.32.65-9.49a48.85,48.85,0,0,1,1-9.15l.15-.14a14.27,14.27,0,0,0,3.72-6.88l1.07-5,1.41-6.51a.33.33,0,0,1,.24-.05,1.21,1.21,0,0,1,.54.19l.65.41a2.68,2.68,0,0,0,.83.36,3.94,3.94,0,0,0,3.21-.83,10,10,0,0,0,1.18-1.06c.37-.36.73-.73,1.09-1.11A13,13,0,0,0,346,413a22.79,22.79,0,0,0,2.16-5.85c.26-1,.45-2,.67-3l.63-3a58.83,58.83,0,0,0,1.12-6.09A17,17,0,0,0,350.33,388.76Z" transform="translate(-194.87 -303.49)"/><path class="cls-4" d="M329,436.56S322.33,477.19,288.8,471c0,0-15.52-3-21-18.82l-1.3-15.09s11.53,9.16,13.35,10.59,11.34,8.22,17.19,8.57c0,0,9-.06,21.76-11.65Z" transform="translate(-194.87 -303.49)"/><path class="cls-4" d="M246.07,391.65c1.6-.74,4.12.74,5,2.2a10.14,10.14,0,0,1,1.23,5.32,37.63,37.63,0,0,0,.12,5.52,17.28,17.28,0,0,0,2.8,6.67c1.31,2,2.83,3.95,4.1,6-1-4-1.43-8.14-2.4-12.17S254.82,397,254,392.89c-.38-1.93-.73-4-2-5.45a5.29,5.29,0,0,0-4-1.79,1.65,1.65,0,0,0-1,.25,1.76,1.76,0,0,0-.51.69c-.86,1.69-2,4.53-1.61,6.46A2.17,2.17,0,0,1,246.07,391.65Z" transform="translate(-194.87 -303.49)"/><path class="cls-4" d="M348.63,391.65c-1.6-.74-4.13.74-5.05,2.2a10.23,10.23,0,0,0-1.22,5.32,40.63,40.63,0,0,1-.12,5.52,17.44,17.44,0,0,1-2.8,6.67c-1.31,2-2.83,3.95-4.11,6,1-4,1.43-8.14,2.4-12.17s2.15-8.17,3-12.31c.37-1.93.72-4,2-5.45a5.29,5.29,0,0,1,4-1.79,1.65,1.65,0,0,1,1,.25,1.86,1.86,0,0,1,.51.69c.85,1.69,2,4.53,1.61,6.46A2.17,2.17,0,0,0,348.63,391.65Z" transform="translate(-194.87 -303.49)"/><path class="cls-4" d="M289.08,386.46c.74,1.65.48,4.71.75,5.23a4.09,4.09,0,0,1,.37,1.95c.15,2.7.28,5.4.42,8.1a45.76,45.76,0,0,0,.8,7.17s.75-5.13.95-10.81c.13-3.85,0-7.94-.05-10.36Z" transform="translate(-194.87 -303.49)"/><polygon class="cls-4" points="97.45 84.25 96.98 82.32 77.97 75.89 68.83 80.72 77.88 78.7 97.45 84.25"/><polygon class="cls-4" points="101.22 140.06 105.48 137.8 104.78 141.31 101.87 141.54 101.22 140.06"/><path class="cls-4" d="M303.18,424.61a6.44,6.44,0,0,1-2.41-.11l-2.87.42L295,424.5a6.44,6.44,0,0,1-2.41.11c3.16,2.86,5.06,2.49,5.29,2.43S300,427.47,303.18,424.61Z" transform="translate(-194.87 -303.49)"/><polygon class="cls-4" points="107.07 84.1 112.88 82.22 126.16 79.08 131.56 79.91 135.9 80.94 130.48 78.23 127.05 75.75 110.72 79.29 107.07 84.1"/><path class="cls-4" d="M312.23,411.58a.63.63,0,1,1-.63-.63A.63.63,0,0,1,312.23,411.58Z" transform="translate(-194.87 -303.49)"/><path class="cls-4" d="M318.36,411.33a.63.63,0,1,1-.63-.63A.63.63,0,0,1,318.36,411.33Z" transform="translate(-194.87 -303.49)"/><path class="cls-4" d="M312.1,416a.38.38,0,1,1-.37-.38A.38.38,0,0,1,312.1,416Z" transform="translate(-194.87 -303.49)"/><circle class="cls-4" cx="121.17" cy="111.91" r="0.31"/><path class="cls-4" d="M315.36,408.2a.26.26,0,1,1-.26-.25A.26.26,0,0,1,315.36,408.2Z" transform="translate(-194.87 -303.49)"/><circle class="cls-4" cx="128.18" cy="102.77" r="0.44"/><path class="cls-4" d="M318.73,418.09a.63.63,0,1,1-.62-.63A.62.62,0,0,1,318.73,418.09Z" transform="translate(-194.87 -303.49)"/><path class="cls-4" d="M285.6,411.58a.63.63,0,1,0,.62-.63A.63.63,0,0,0,285.6,411.58Z" transform="translate(-194.87 -303.49)"/><circle class="cls-4" cx="85.22" cy="107.84" r="0.63"/><path class="cls-4" d="M285.72,416a.38.38,0,0,0,.38.38.38.38,0,0,0,0-.76A.38.38,0,0,0,285.72,416Z" transform="translate(-194.87 -303.49)"/><circle class="cls-4" cx="86.91" cy="111.91" r="0.31"/><path class="cls-4" d="M282.47,408.2a.25.25,0,1,0,.25-.25A.25.25,0,0,0,282.47,408.2Z" transform="translate(-194.87 -303.49)"/><circle class="cls-4" cx="79.9" cy="102.77" r="0.44"/><circle class="cls-4" cx="84.85" cy="114.6" r="0.63"/><path class="cls-5" d="M336.8,466.78l5.71,4.28.53,3.39s12.13,6.59,14.8,7.31,26,8.2,27.82,8.91,8.73,4.1,9.62,7,4.64,17.65,4.64,17.65h-205s4.45-16,6.06-18a23,23,0,0,1,13.73-8c8-1.61,22.64-7.14,24.25-8S251,475,251,475l.53-2.67,2.14-2.32,3.39-2.85,2,3s13.55,9.27,38.16,8.91c0,0,20.68.36,37.62-8.73Z" transform="translate(-194.87 -303.49)"/><path class="cls-6" d="M256.42,514.26a58.07,58.07,0,0,1-19.11-3.65c-3.79-1.52-7.5-3.77-9.52-7.31a15,15,0,0,1-1.77-6,6.55,6.55,0,0,1,.07-2.72,24.51,24.51,0,0,1,1.07-2.73,27.66,27.66,0,0,1,4.12-6.51,13.33,13.33,0,0,1,2.76-2.8,20.63,20.63,0,0,1,3.94-1.28,56,56,0,0,0,12.94-6.48c11.57,7.89,24.76,13.89,38.71,15.13,16.28,1.44,32.6-3.7,46.86-11.69,1.77-1,3.52-2,5.26-3.07.39-.23,1.39-1,1.81-.32.28.47-.53,1.43-.78,1.76-2.07,2.82-5.09,5.29-7.7,7.6a103.72,103.72,0,0,1-8.73,6.9c-11.93,8.43-31.12,18.33-45.44,21.24A101.15,101.15,0,0,1,256.42,514.26Z" transform="translate(-194.87 -303.49)"/><path class="cls-6" d="M370.6,488.06c2.92,3,7,4.65,11,6.08a15.66,15.66,0,0,0,2.3.71c2.69.56,5.53-.19,8.21.43a1.3,1.3,0,0,1,1,.65c-4.07-2.54-6.1-4.65-10.53-6.5-2.21-.92-6.7-1.83-9-2.57-2-.66-4.6-1.79-6.72-1.81A13.07,13.07,0,0,1,370.6,488.06Z" transform="translate(-194.87 -303.49)"/><path class="cls-6" d="M223.1,488.06c-2.92,3-7,4.65-11,6.08a15.66,15.66,0,0,1-2.3.71c-2.69.56-5.53-.19-8.21.43a1.3,1.3,0,0,0-1,.65,88,88,0,0,1,12.77-6.58q3.31-1.38,6.74-2.49c2-.66,4.6-1.79,6.72-1.81A12.93,12.93,0,0,0,223.1,488.06Z" transform="translate(-194.87 -303.49)"/><path class="cls-7" d="M260.76,474.74c17.39,7.6,37,11.1,55.55,6.94-5.91,4.39-13.33,6.11-20.51,7.73,13-1.07,26.29-2.24,37.92-8.07a24.1,24.1,0,0,0,7.93-5.85,3.22,3.22,0,0,0,1-2.38,3.29,3.29,0,0,0-.77-1.45,18.68,18.68,0,0,0-4-3.72.94.94,0,0,0-.64-.23c-.32,0-.5.37-.67.64a7.25,7.25,0,0,1-2.91,2.29c-9.2,4.85-19.58,7.2-30,7.76a129.85,129.85,0,0,1-31-2.53,37.29,37.29,0,0,1-8.9-2.52,14.32,14.32,0,0,1-6.82-6.05c-.08-.17-4.18,1.53-2,3.85C256.38,472.84,258.71,473.85,260.76,474.74Z" transform="translate(-194.87 -303.49)"/><path class="cls-7" d="M250.48,479.22a48.83,48.83,0,0,0,5.54,3.84,56.3,56.3,0,0,0,5.94,3.16,67.21,67.21,0,0,0,12.71,4.37,87.73,87.73,0,0,0,13.29,2.1c2.24.2,4.49.32,6.74.38s4.51.1,6.76.06a.16.16,0,0,1,.16.15.16.16,0,0,1-.14.16c-2.26.14-4.52.23-6.78.25s-4.53-.07-6.8-.21a81.77,81.77,0,0,1-13.45-2,64.08,64.08,0,0,1-12.8-4.59,57.52,57.52,0,0,1-5.92-3.37,50.25,50.25,0,0,1-5.38-4.14.09.09,0,0,1,0-.14A.11.11,0,0,1,250.48,479.22Z" transform="translate(-194.87 -303.49)"/><path class="cls-7" d="M257.6,465.84l5.62.82s-1.84,4.4-4.81,3.39Z" transform="translate(-194.87 -303.49)"/><path class="cls-7" d="M336.68,465.82l-5.62.82s2.49,3.74,4.81,3.39Z" transform="translate(-194.87 -303.49)"/><path class="cls-7" d="M266.92,436.79c.42,3.11.63,6.23.8,9.34s.2,6.25.18,9.37,0,6.25-.24,9.37-.41,6.24-.88,9.34a.2.2,0,0,1-.23.17.21.21,0,0,1-.18-.21c.11-3.11.11-6.22.1-9.33s-.05-6.22-.13-9.33l-.24-9.32c0-3.11-.12-6.22-.13-9.33a.48.48,0,0,1,.48-.48A.47.47,0,0,1,266.92,436.79Z" transform="translate(-194.87 -303.49)"/><path class="cls-7" d="M259.1,470.22c1.33-1.55,2.68-3,4-4.54s2.49-3.1,3.74-4.71l.62.36a19.72,19.72,0,0,1-3.23,5.3,18.81,18.81,0,0,1-4.67,4.09Z" transform="translate(-194.87 -303.49)"/><path class="cls-7" d="M288.63,456.92a36.47,36.47,0,0,0,2.62,6.37,38.77,38.77,0,0,0,3.75,5.77.23.23,0,0,1,0,.31.22.22,0,0,1-.3,0,27,27,0,0,1-4-5.76,28.1,28.1,0,0,1-2.44-6.55.2.2,0,0,1,.15-.24A.2.2,0,0,1,288.63,456.92Z" transform="translate(-194.87 -303.49)"/><path class="cls-7" d="M292.45,390.82c.16,1.51.21,3,.25,4.56s0,3-.05,4.56-.15,3-.33,4.56a31.44,31.44,0,0,1-.75,4.51.09.09,0,0,1-.12.07.1.1,0,0,1-.08-.11c.13-1.51.22-3,.29-4.53s.15-3,.19-4.53l.17-4.54c.07-1.52.14-3,.26-4.55a.08.08,0,0,1,.09-.08A.08.08,0,0,1,292.45,390.82Z" transform="translate(-194.87 -303.49)"/><path class="cls-7" d="M297.65,340.91a.4.4,0,0,1-.12-.29l.4.4h-.49l.41-.4h0v.4h-.4a59.37,59.37,0,0,0-19.81,3.14,39.87,39.87,0,0,0-8.89,4.6,32.7,32.7,0,0,0-7.14,7,39.59,39.59,0,0,0-7.25,18.44,54.92,54.92,0,0,0-.46,10,36.56,36.56,0,0,0,.5,4.95l1.05,5c1.41,6.61,2.76,13.24,4.11,19.86l2,9.94,1,5a13,13,0,0,0,3.35,6.37,21.34,21.34,0,0,0,1.85,1.66l3.89,3.24c2.61,2.16,5.22,4.3,7.86,6.4a92.69,92.69,0,0,0,8.13,6A29.77,29.77,0,0,0,297,456h1.4a29.75,29.75,0,0,0,9.32-3.52,92.43,92.43,0,0,0,8.12-6c2.65-2.1,5.26-4.24,7.87-6.4l3.89-3.25a14.72,14.72,0,0,0,3.35-3.57,13.22,13.22,0,0,0,1.82-4.47l1-5,2-9.95,4-19.9,1-5a35.82,35.82,0,0,0,.47-4.91,54.2,54.2,0,0,0-.52-10,44.36,44.36,0,0,0-2.49-9.59,35.26,35.26,0,0,0-4.74-8.64,33.33,33.33,0,0,0-7-6.91,40.64,40.64,0,0,0-8.76-4.66,49,49,0,0,0-4.78-1.49c-.81-.19-1.61-.45-2.44-.58L308,341.9c-.83-.17-1.66-.26-2.5-.35l-2.5-.27C301.23,341.16,299.38,341.06,297.65,340.91Zm.57-.58c1.65,0,3.18-.06,4.81,0l2.55.23a24.08,24.08,0,0,1,2.54.29l2.53.39c.84.12,1.67.37,2.5.54a47.15,47.15,0,0,1,5,1.38,41,41,0,0,1,9.24,4.58,32.84,32.84,0,0,1,7.54,7.11,37,37,0,0,1,5.07,9.05,44.62,44.62,0,0,1,2.56,10,56.24,56.24,0,0,1,.48,10.29,40,40,0,0,1-.52,5.18l-1.06,5-4.28,19.85L335,424.14l-1.07,5a14.27,14.27,0,0,1-3.72,6.88,23.62,23.62,0,0,1-1.95,1.71l-3.92,3.22c-2.63,2.14-5.26,4.26-7.93,6.34a93,93,0,0,1-8.27,6,30.5,30.5,0,0,1-9.58,3.63h-1.71a30.61,30.61,0,0,1-9.59-3.61,96.56,96.56,0,0,1-8.27-6q-4-3.12-7.93-6.34l-3.93-3.22a21.94,21.94,0,0,1-1.94-1.72,14.81,14.81,0,0,1-1.65-2.05,14.27,14.27,0,0,1-2-4.84l-1.05-5-2.1-9.93c-1.41-6.62-2.81-13.24-4.15-19.87l-1-5a39.18,39.18,0,0,1-.49-5.14,55.58,55.58,0,0,1,.54-10.23,40.33,40.33,0,0,1,7.62-18.85,33.42,33.42,0,0,1,7.41-7.08,41.86,41.86,0,0,1,9.12-4.63,63.78,63.78,0,0,1,20.08-3.21l-.4.4h0v-.41h.89l.41.4A.44.44,0,0,0,298.22,340.33Z" transform="translate(-194.87 -303.49)"/><path class="cls-7" d="M330.08,435.94a48.24,48.24,0,0,0-1.07,9.33c-.09,3.17-.42,6.33-.65,9.49a138.47,138.47,0,0,0-.17,19,.21.21,0,0,1-.41,0c-.41-3.16-.71-6.34-.83-9.53s-.16-6.38-.1-9.58.16-6.37.52-9.54a35.55,35.55,0,0,1,1.94-9.46.41.41,0,0,1,.53-.23.42.42,0,0,1,.25.48Z" transform="translate(-194.87 -303.49)"/><path class="cls-7" d="M335,470.66a18.89,18.89,0,0,1-4.63-4.06,19.62,19.62,0,0,1-3.2-5.27l.62-.36c1.25,1.59,2.44,3.17,3.71,4.68s2.61,3,3.92,4.51Z" transform="translate(-194.87 -303.49)"/><path class="cls-7" d="M307.29,457a28.1,28.1,0,0,1-2.44,6.55,27,27,0,0,1-4,5.76.22.22,0,0,1-.34-.28,38.77,38.77,0,0,0,3.75-5.77,36.47,36.47,0,0,0,2.62-6.37.19.19,0,0,1,.25-.12A.19.19,0,0,1,307.29,457Z" transform="translate(-194.87 -303.49)"/><path class="cls-7" d="M273.76,401.87a13.34,13.34,0,0,1,3-.35,28.26,28.26,0,0,1,2.91.06,55.13,55.13,0,0,1,5.74.68.07.07,0,0,1,0,.14,52.48,52.48,0,0,0-5.74-.35c-.95,0-1.91,0-2.85.11a13,13,0,0,0-2.73.48h0a.4.4,0,0,1-.25-.77Z" transform="translate(-194.87 -303.49)"/><path class="cls-7" d="M284.86,394.75c0,4-2.42,7.19-5.41,7.19s-5.41-3.22-5.41-7.19,2.42-7.19,5.41-7.19S284.86,390.78,284.86,394.75Z" transform="translate(-194.87 -303.49)"/><path class="cls-8" d="M285.63,390.62a2,2,0,1,1-2-2.41A2.22,2.22,0,0,1,285.63,390.62Z" transform="translate(-194.87 -303.49)"/><path class="cls-7" d="M309.55,401.87a13.43,13.43,0,0,1,3-.35,28.26,28.26,0,0,1,2.91.06,55.13,55.13,0,0,1,5.74.68.06.06,0,0,1,.05.08.07.07,0,0,1-.07.06,52.63,52.63,0,0,0-5.74-.35c-1,0-1.91,0-2.86.11a13.08,13.08,0,0,0-2.73.48h0a.4.4,0,0,1-.25-.77Z" transform="translate(-194.87 -303.49)"/><path class="cls-7" d="M310.19,394.75c0,4,2.42,7.19,5.41,7.19s5.41-3.22,5.41-7.19-2.42-7.19-5.41-7.19S310.19,390.78,310.19,394.75Z" transform="translate(-194.87 -303.49)"/><path class="cls-8" d="M321.16,390.62a2,2,0,1,1-2-2.41A2.22,2.22,0,0,1,321.16,390.62Z" transform="translate(-194.87 -303.49)"/><path class="cls-7" d="M347.67,392.68a3.29,3.29,0,0,0,.43-2.36,1.87,1.87,0,0,0-1.81-1.2,4.4,4.4,0,0,0-2.32.53,10.93,10.93,0,0,0-2,1.43.42.42,0,0,1-.58-.05.41.41,0,0,1,.06-.58h0a11.81,11.81,0,0,1,2.24-1.38,4.86,4.86,0,0,1,2.66-.43,3.09,3.09,0,0,1,1.29.46,1.85,1.85,0,0,1,.79,1.14,3.57,3.57,0,0,1-.6,2.54.1.1,0,0,1-.12,0A.09.09,0,0,1,347.67,392.68Z" transform="translate(-194.87 -303.49)"/><path class="cls-7" d="M340.55,397.67a4.6,4.6,0,0,1,1.74,3.11,5.25,5.25,0,0,1-1,3.46c-.65,1-1.43,1.9-2,2.86a9.08,9.08,0,0,0-1.18,3.13.42.42,0,0,1-.48.33.4.4,0,0,1-.32-.47v0a9.87,9.87,0,0,1,1.41-3.34c.67-1,1.48-1.86,2.12-2.8a4.73,4.73,0,0,0,1-3.11,4.24,4.24,0,0,0-1.5-2.91.14.14,0,0,1,0-.21A.15.15,0,0,1,340.55,397.67Z" transform="translate(-194.87 -303.49)"/><path class="cls-7" d="M340.48,389.75c1.28-1.58,2.69-3.36,4.82-4.23a4.57,4.57,0,0,1,1.73-.35,2.89,2.89,0,0,1,1.79.57,3.51,3.51,0,0,1,1,1.49,11.93,11.93,0,0,1,.51,1.53,16.91,16.91,0,0,1,.28,6.29,58.54,58.54,0,0,1-1.12,6.1c-.44,2-.82,4-1.3,6A22.93,22.93,0,0,1,346,413a14.41,14.41,0,0,1-.88,1.32c-.33.4-.7.77-1,1.16a17.36,17.36,0,0,1-2.25,2.2,3.94,3.94,0,0,1-3.21.83,5.51,5.51,0,0,1-1.48-.77c-.37-.24-.81-.23-.82-.09l-.63-1.27a2,2,0,0,1,2,.52,3.37,3.37,0,0,0,1.11.83,2.83,2.83,0,0,0,2.56-.61,16.33,16.33,0,0,0,2.12-2.12c.34-.37.69-.74,1-1.12a14.94,14.94,0,0,0,.82-1.25c1.94-3.52,2.42-7.7,3.3-11.68a56.81,56.81,0,0,0,1-6,15.91,15.91,0,0,0-.36-5.93,9.3,9.3,0,0,0-.49-1.37,2.45,2.45,0,0,0-.7-1,2.51,2.51,0,0,0-2.37,0,11.59,11.59,0,0,0-4.17,4Z" transform="translate(-194.87 -303.49)"/><path class="cls-7" d="M247.39,392.77a3.57,3.57,0,0,1-.6-2.54,1.85,1.85,0,0,1,.79-1.14,3.09,3.09,0,0,1,1.29-.46,4.86,4.86,0,0,1,2.66.43,11.81,11.81,0,0,1,2.24,1.38.41.41,0,0,1,.09.57.4.4,0,0,1-.57.08h0a10.93,10.93,0,0,0-2-1.43,4.4,4.4,0,0,0-2.32-.53,1.86,1.86,0,0,0-1.81,1.2,3.29,3.29,0,0,0,.43,2.36.09.09,0,0,1-.16.09Z" transform="translate(-194.87 -303.49)"/><path class="cls-7" d="M254.86,397.91a4.2,4.2,0,0,0-1.5,2.91,4.73,4.73,0,0,0,1,3.11c.64.94,1.45,1.79,2.12,2.8a9.87,9.87,0,0,1,1.41,3.34.41.41,0,1,1-.79.18v0a8.9,8.9,0,0,0-1.19-3.13c-.58-1-1.36-1.85-2-2.86a5.25,5.25,0,0,1-1-3.46,4.6,4.6,0,0,1,1.74-3.11.17.17,0,0,1,.22,0A.17.17,0,0,1,254.86,397.91Z" transform="translate(-194.87 -303.49)"/><path class="cls-7" d="M253.62,390.61c-1.22-1.62-2.46-3.21-4.17-4a2.51,2.51,0,0,0-2.37,0,2.45,2.45,0,0,0-.7,1,10.65,10.65,0,0,0-.5,1.37,16.12,16.12,0,0,0-.35,5.93,56.81,56.81,0,0,0,1,6c.88,4,1.36,8.16,3.3,11.68a14.94,14.94,0,0,0,.82,1.25c.32.38.67.75,1,1.12a16.4,16.4,0,0,0,2.13,2.12,2.83,2.83,0,0,0,2.56.61,3.47,3.47,0,0,0,1.11-.83,2,2,0,0,1,2.05-.52l-.63,1.27c0-.14-.45-.15-.82.09a5.44,5.44,0,0,1-1.49.77,3.92,3.92,0,0,1-3.2-.83,17.36,17.36,0,0,1-2.25-2.2c-.35-.39-.71-.76-1-1.16a12.62,12.62,0,0,1-.88-1.32,22.93,22.93,0,0,1-2.16-5.85c-.49-2-.86-4-1.31-6a58.51,58.51,0,0,1-1.11-6.1,17.12,17.12,0,0,1,.27-6.29,13.77,13.77,0,0,1,.52-1.53,3.51,3.51,0,0,1,1-1.49,2.89,2.89,0,0,1,1.79-.57,4.57,4.57,0,0,1,1.73.35c2.13.87,3.54,2.65,4.81,4.23Z" transform="translate(-194.87 -303.49)"/><path class="cls-7" d="M303.91,405a24.89,24.89,0,0,1,.38,2.73,22.74,22.74,0,0,1,.1,2.74.19.19,0,0,1-.37,0,23.26,23.26,0,0,1-.38-2.73,25.19,25.19,0,0,1-.08-2.75.18.18,0,0,1,.18-.16A.18.18,0,0,1,303.91,405Z" transform="translate(-194.87 -303.49)"/><path class="cls-7" d="M344.2,367.89h0A35.27,35.27,0,0,0,339.74,352a29.81,29.81,0,0,0,.91-5.2,10.24,10.24,0,0,0-.6-5.13,12.44,12.44,0,0,0-3.51-4l-7.49-6.44c-2.64-2.28-5.34-4.59-8.58-5.88-4.66-1.86-10.07-1.45-14.54-3.75-2.21-1.14-4.07-2.89-6.33-3.94a18.76,18.76,0,0,0-8-1.39,50.82,50.82,0,0,0-36.92,16.52c-3.08,3.4-7.07,5.19-9.1,9.62a33,33,0,0,0-2.38,9.73,58.93,58.93,0,0,0-.43,13.2,19.6,19.6,0,0,0,.71,3.71,9.16,9.16,0,0,0,2.11,3.76,5.5,5.5,0,0,0,6.09,1.32,12.8,12.8,0,0,0,1.23,3.16l-.06.43,1.19,12,3.45,13.9s.95.24,1.07-1.78c0,0,1-13.13.42-21.09,1.24-.2,2.56-.6,3.6-.7-.68-2.3-1.29-4.61-1.83-6.95l2.92-3.23,17.21-10.91,16.2,2.19v.18l.66-.09.66.09v-.18l16.2-2.19,17.21,10.91.24,0,0,0,2.29,2.53c-.58,2.57-1.23,5.13-2,7.65,1.25.12,2.93.69,4.37.8-.54,8,.43,21,.43,21,.12,2,1.07,1.78,1.07,1.78l3.45-14.86,1.19-11.05s0-.29-.1-.79a13.21,13.21,0,0,0,1.32-7.72,2.29,2.29,0,0,1,0-.94A1.16,1.16,0,0,1,344.2,367.89Z" transform="translate(-194.87 -303.49)"/><path class="cls-7" d="M296.17,490.43c-12-.59-29.37-3.53-44-14.15-.34-.24-.56-.41-.67-.47-1.82-1-.39-4.34-.08-5l.07-.16,6.11-4.86,1.61,3.52c12.85,8.23,33.83,9,37.92,9s25.05-.8,37.9-9l1.61-3.52,6.11,4.86.07.16c.31.66,1.74,4-.08,5-.11.06-.33.23-.67.47-14.61,10.62-32,13.56-43.94,14.15Zm-43.46-18.84c-.57,1.3-.82,2.74-.48,2.92.16.09.4.26.83.57,14.32,10.41,31.37,13.29,43.15,13.88h1.9c11.74-.59,28.79-3.47,43.11-13.88.43-.31.67-.48.83-.57.34-.18.09-1.62-.48-2.92l-4.35-3.47-1,2.19-.18.12c-13.17,8.57-34.71,9.32-38.89,9.39s-25.74-.82-38.91-9.39l-.18-.12-1-2.19Z" transform="translate(-194.87 -303.49)"/><path class="cls-7" d="M252.13,475.27c-2.79,1.59-5.56,3-8.38,4.49l-2.12,1.07c-.71.36-1.47.68-2.2,1-1.48.6-3,1.14-4.47,1.65-6,2.05-12.15,3.57-18.13,5.46a80.77,80.77,0,0,0-8.76,3.29,14.07,14.07,0,0,0-3.81,2.3,16.74,16.74,0,0,0-2.78,3.52,33.26,33.26,0,0,0-3.56,8.48c-.84,3-1.45,6.08-2.08,9.17l-1-.16a82,82,0,0,1,1.63-9.39,31.6,31.6,0,0,1,3.58-9,17.15,17.15,0,0,1,3.06-3.89,15.79,15.79,0,0,1,4.26-2.56,83,83,0,0,1,9-3.3c6.06-1.9,12.21-3.3,18.18-5.23,1.49-.48,3-1,4.43-1.55.74-.29,1.44-.55,2.15-.89l2.13-1c2.82-1.36,5.68-2.76,8.42-4.22Z" transform="translate(-194.87 -303.49)"/><path class="cls-7" d="M343.6,474.52c2.74,1.46,5.61,2.86,8.43,4.22l2.13,1c.7.34,1.41.6,2.15.89,1.46.56,2.94,1.07,4.43,1.55,6,1.93,12.12,3.33,18.17,5.23a83,83,0,0,1,9,3.3,15.63,15.63,0,0,1,4.26,2.56,16.61,16.61,0,0,1,3.06,3.89,31.31,31.31,0,0,1,3.58,9,79.88,79.88,0,0,1,1.64,9.39l-1,.16c-.63-3.09-1.23-6.18-2.08-9.17a33.26,33.26,0,0,0-3.56-8.48A16.7,16.7,0,0,0,391,494.5a14.07,14.07,0,0,0-3.81-2.3,80.93,80.93,0,0,0-8.77-3.29c-6-1.89-12.11-3.41-18.12-5.46-1.51-.51-3-1.05-4.47-1.65-.73-.29-1.49-.61-2.21-1l-2.12-1.07c-2.81-1.46-5.58-2.9-8.37-4.49Z" transform="translate(-194.87 -303.49)"/><path class="cls-7" d="M257.57,479.5h0a.31.31,0,0,1-.27-.36,29.93,29.93,0,0,1,2.47-8.48.32.32,0,0,1,.59.27,29.34,29.34,0,0,0-2.43,8.3A.32.32,0,0,1,257.57,479.5Z" transform="translate(-194.87 -303.49)"/><path class="cls-7" d="M262.71,482.34h0a.32.32,0,0,1-.3-.34,27.11,27.11,0,0,1,2.15-8.9.32.32,0,0,1,.42-.17.32.32,0,0,1,.16.42,26.64,26.64,0,0,0-2.09,8.7A.32.32,0,0,1,262.71,482.34Z" transform="translate(-194.87 -303.49)"/><path class="cls-7" d="M268.92,484.57h0a.32.32,0,0,1-.28-.36,38.51,38.51,0,0,1,1.95-8.61.32.32,0,0,1,.41-.2.31.31,0,0,1,.19.41,38.5,38.5,0,0,0-1.92,8.47A.31.31,0,0,1,268.92,484.57Z" transform="translate(-194.87 -303.49)"/><path class="cls-7" d="M275.73,487.16h0a.33.33,0,0,1-.29-.35,32.88,32.88,0,0,1,2.35-9.86.33.33,0,0,1,.42-.18.32.32,0,0,1,.17.42,32.29,32.29,0,0,0-2.3,9.67A.32.32,0,0,1,275.73,487.16Z" transform="translate(-194.87 -303.49)"/><path class="cls-7" d="M282.84,488.59a.33.33,0,0,1-.32-.27,8.49,8.49,0,0,1,.07-2.46,76.68,76.68,0,0,1,1.39-7.65.33.33,0,0,1,.39-.24.32.32,0,0,1,.24.38c-.59,2.5-1.05,5.06-1.39,7.6a7.93,7.93,0,0,0-.06,2.27.33.33,0,0,1-.27.37Z" transform="translate(-194.87 -303.49)"/><path class="cls-7" d="M290,489.65a.32.32,0,0,1-.32-.3,58.23,58.23,0,0,1,.32-8.46,4.23,4.23,0,0,1,.61-2,.31.31,0,0,1,.44-.08.32.32,0,0,1,.08.45,3.61,3.61,0,0,0-.49,1.72,56.92,56.92,0,0,0-.32,8.36.31.31,0,0,1-.3.33Z" transform="translate(-194.87 -303.49)"/><path class="cls-7" d="M337.59,478.87a.32.32,0,0,1-.31-.28,25.61,25.61,0,0,0-2.43-7.67.33.33,0,0,1,.16-.43.32.32,0,0,1,.42.16,26.14,26.14,0,0,1,2.48,7.85.33.33,0,0,1-.27.37Z" transform="translate(-194.87 -303.49)"/><path class="cls-7" d="M332.46,481.63a.32.32,0,0,1-.32-.3,22.85,22.85,0,0,0-2.1-8,.32.32,0,0,1,.59-.25,23.22,23.22,0,0,1,2.15,8.19.32.32,0,0,1-.3.34Z" transform="translate(-194.87 -303.49)"/><path class="cls-7" d="M326.25,484.57a.32.32,0,0,1-.32-.29,37.94,37.94,0,0,0-1.92-8.47.32.32,0,1,1,.61-.21,38.51,38.51,0,0,1,1.95,8.61.33.33,0,0,1-.28.36Z" transform="translate(-194.87 -303.49)"/><path class="cls-7" d="M319.44,486.71a.31.31,0,0,1-.32-.29,30.1,30.1,0,0,0-2.3-9.23.32.32,0,1,1,.59-.24,30.42,30.42,0,0,1,2.35,9.42.32.32,0,0,1-.3.34Z" transform="translate(-194.87 -303.49)"/><path class="cls-7" d="M312.33,488.59h-.05a.32.32,0,0,1-.27-.37,7.6,7.6,0,0,0-.07-2.27c-.33-2.54-.8-5.1-1.38-7.6a.32.32,0,0,1,.62-.14c.59,2.52,1.06,5.09,1.4,7.65a8.15,8.15,0,0,1,.06,2.46A.31.31,0,0,1,312.33,488.59Z" transform="translate(-194.87 -303.49)"/><path class="cls-7" d="M305.15,489.65h0a.32.32,0,0,1-.31-.33,56.91,56.91,0,0,0-.31-8.36,3.73,3.73,0,0,0-.49-1.72.32.32,0,1,1,.52-.37,4.11,4.11,0,0,1,.6,2,56.85,56.85,0,0,1,.32,8.46A.31.31,0,0,1,305.15,489.65Z" transform="translate(-194.87 -303.49)"/><path class="cls-7" d="M297.67,489.66a.33.33,0,0,1-.33-.32V479.17a.33.33,0,0,1,.65,0v10.17A.33.33,0,0,1,297.67,489.66Z" transform="translate(-194.87 -303.49)"/><path class="cls-7" d="M379.18,516.51h-.06a.32.32,0,0,1-.25-.38,50.76,50.76,0,0,1,10.87-23.21.32.32,0,1,1,.49.41,50.11,50.11,0,0,0-10.73,22.92A.33.33,0,0,1,379.18,516.51Z" transform="translate(-194.87 -303.49)"/><path class="cls-7" d="M215.26,516.51a.32.32,0,0,1-.32-.26,50.13,50.13,0,0,0-10.74-22.92.33.33,0,0,1,0-.45.32.32,0,0,1,.46,0,50.76,50.76,0,0,1,10.87,23.21.33.33,0,0,1-.26.38Z" transform="translate(-194.87 -303.49)"/><path class="cls-7" d="M294.18,423.46a8.67,8.67,0,0,0,1.78.76,5.78,5.78,0,0,0,1.83.29,5,5,0,0,0,1.79-.29,9.16,9.16,0,0,0,1.67-.81l0,0a.32.32,0,0,1,.36.52,5.72,5.72,0,0,1-1.78,1.1,5,5,0,0,1-2.1.31,5.78,5.78,0,0,1-2-.56,5.17,5.17,0,0,1-1.63-1.22,0,0,0,0,1,0-.07A.06.06,0,0,1,294.18,423.46Z" transform="translate(-194.87 -303.49)"/><path class="cls-7" d="M291.68,419a18.51,18.51,0,0,0-.94,2.14c-.12.38-.29.73-.16,1a4.07,4.07,0,0,0,.61.92,3.18,3.18,0,0,0,1.74,1.21,4.41,4.41,0,0,0,2.13-.32.41.41,0,0,1,.52.26.42.42,0,0,1-.27.52h0a5.09,5.09,0,0,1-2.5.17,3.71,3.71,0,0,1-2-1.54,4.31,4.31,0,0,1-.62-1.1,1.16,1.16,0,0,1,0-.69c.07-.21.15-.38.22-.56a18.36,18.36,0,0,1,1.1-2.11.09.09,0,1,1,.15.09Z" transform="translate(-194.87 -303.49)"/><path class="cls-7" d="M303.81,419a16.05,16.05,0,0,1,1.09,2.1,5.92,5.92,0,0,1,.23.56,1.15,1.15,0,0,1,0,.69,3.93,3.93,0,0,1-.6,1.09,3.81,3.81,0,0,1-2,1.55,4.83,4.83,0,0,1-2.51-.1.41.41,0,0,1-.3-.49.42.42,0,0,1,.49-.3h0a4.19,4.19,0,0,0,2.13.25,3.16,3.16,0,0,0,1.73-1.22,3.76,3.76,0,0,0,.6-.91c.12-.28,0-.63-.18-1a16.75,16.75,0,0,0-.93-2.13.08.08,0,0,1,0-.12A.08.08,0,0,1,303.81,419Z" transform="translate(-194.87 -303.49)"/><path class="cls-7" d="M330.25,384.27,321,380.83l1.82.2-19.61,4.83.63-.54-1.65,2.09a.46.46,0,0,1-.66.08.47.47,0,0,1-.17-.48l.61-2.59a.65.65,0,0,1,.39-.46l.23-.08,18.87-7.19.19-.07a1.64,1.64,0,0,1,1.63.27l7.61,6.33a.61.61,0,0,1,.08.86A.63.63,0,0,1,330.25,384.27Z" transform="translate(-194.87 -303.49)"/><path class="cls-7" d="M263.56,383.22l7.62-6.33a1.64,1.64,0,0,1,1.63-.27l.18.07,18.87,7.19.23.08a.66.66,0,0,1,.4.46l.6,2.59a.47.47,0,0,1-.35.57.48.48,0,0,1-.48-.17l-1.65-2.09.63.54L271.64,381l1.81-.2-9.28,3.44a.62.62,0,0,1-.79-.37A.62.62,0,0,1,263.56,383.22Z" transform="translate(-194.87 -303.49)"/><path class="cls-7" d="M290.49,433.38a69,69,0,0,1,7-.31c2.34,0,4.69.07,7,.3a.11.11,0,0,1,.1.12.11.11,0,0,1-.1.1c-2.34.23-4.69.28-7,.29a66.2,66.2,0,0,1-7-.31.09.09,0,0,1-.09-.1A.11.11,0,0,1,290.49,433.38Z" transform="translate(-194.87 -303.49)"/></g></svg>