<svg width="197" height="187" viewBox="0 0 197 187" fill="none" xmlns="http://www.w3.org/2000/svg">
<rect width="197" height="187" fill="white"/>
<path d="M0 32C0 14.3269 14.3269 0 32 0H165C182.673 0 197 14.3269 197 32V155C197 172.673 182.673 187 165 187H32C14.3269 187 0 172.673 0 155V32Z" fill="#184080"/>
<path d="M121.73 77.6364L130.519 105.264H130.857L139.663 77.6364H148.186L135.651 114H125.743L113.19 77.6364H121.73Z" fill="#E23A22"/>
<path d="M34.0511 114H21.1605V77.6364H34.1577C37.8153 77.6364 40.964 78.3643 43.6037 79.8203C46.2434 81.2644 48.2734 83.3419 49.6939 86.0526C51.1262 88.7633 51.8423 92.0066 51.8423 95.7827C51.8423 99.5705 51.1262 102.826 49.6939 105.548C48.2734 108.271 46.2315 110.36 43.5682 111.816C40.9167 113.272 37.7443 114 34.0511 114ZM28.8487 107.413H33.7315C36.0043 107.413 37.916 107.01 39.4666 106.205C41.0291 105.388 42.201 104.128 42.9822 102.423C43.7753 100.707 44.1719 98.4934 44.1719 95.7827C44.1719 93.0956 43.7753 90.8999 42.9822 89.1953C42.201 87.4908 41.035 86.236 39.4844 85.4311C37.9337 84.6262 36.022 84.2237 33.7493 84.2237H28.8487V107.413ZM57.5375 114V77.6364H71.8841C74.6303 77.6364 76.974 78.1276 78.9153 79.1101C80.8684 80.0807 82.354 81.4598 83.372 83.2472C84.4018 85.0227 84.9167 87.112 84.9167 89.5149C84.9167 91.9297 84.3959 94.0071 83.3542 95.7472C82.3126 97.4754 80.8033 98.8011 78.8265 99.7244C76.8616 100.648 74.4823 101.109 71.6887 101.109H62.0829V94.9304H70.4458C71.9136 94.9304 73.1329 94.7292 74.1035 94.3267C75.0742 93.9242 75.7962 93.3205 76.2697 92.5156C76.755 91.7107 76.9977 90.7105 76.9977 89.5149C76.9977 88.3075 76.755 87.2895 76.2697 86.4609C75.7962 85.6323 75.0682 85.005 74.0858 84.5788C73.1151 84.1409 71.89 83.9219 70.4103 83.9219H65.2257V114H57.5375ZM77.1752 97.4517L86.2129 114H77.7257L68.8833 97.4517H77.1752ZM95.8684 84.9091V114H89.7179V84.9091H95.8684ZM108.131 77.6364L116.92 105.264H117.257L126.064 77.6364H134.586L122.051 114H112.143L99.59 77.6364H108.131Z" fill="#FEECDD"/>
<path d="M150.161 114V77.6364H174.663V83.9751H157.849V92.6399H173.403V98.9787H157.849V107.661H174.734V114H150.161Z" fill="#FEECDD"/>
<path d="M93 79.9167C92.7569 79.9167 92.5486 79.8472 92.375 79.7083C92.2014 79.5694 92.0712 79.3871 91.9844 79.1615C91.6545 78.1892 91.2378 77.2778 90.7344 76.4271C90.2483 75.5764 89.5625 74.5781 88.6771 73.4323C87.7917 72.2865 87.0712 71.1927 86.5156 70.151C85.9774 69.1094 85.7083 67.8507 85.7083 66.375C85.7083 64.3437 86.4115 62.625 87.8177 61.2187C89.2413 59.7951 90.9687 59.0833 93 59.0833C95.0312 59.0833 96.75 59.7951 98.1562 61.2187C99.5799 62.625 100.292 64.3437 100.292 66.375C100.292 67.9549 99.9878 69.2743 99.3802 70.3333C98.7899 71.375 98.1042 72.408 97.3229 73.4323C96.3854 74.6823 95.6736 75.724 95.1875 76.5573C94.7187 77.3733 94.3281 78.2413 94.0156 79.1615C93.9288 79.4045 93.7899 79.5955 93.599 79.7344C93.4253 79.8559 93.2257 79.9167 93 79.9167ZM93 68.9792C93.7292 68.9792 94.3455 68.7274 94.849 68.224C95.3524 67.7205 95.6042 67.1042 95.6042 66.375C95.6042 65.6458 95.3524 65.0295 94.849 64.526C94.3455 64.0226 93.7292 63.7708 93 63.7708C92.2708 63.7708 91.6545 64.0226 91.151 64.526C90.6476 65.0295 90.3958 65.6458 90.3958 66.375C90.3958 67.1042 90.6476 67.7205 91.151 68.224C91.6545 68.7274 92.2708 68.9792 93 68.9792Z" fill="#E23A22"/>
</svg>
