<svg width="204" height="125" viewBox="0 0 204 125" fill="none" xmlns="http://www.w3.org/2000/svg">
<path d="M133.455 35.4545L144.705 70.8182H145.136L156.409 35.4545H167.318L151.273 82H138.591L122.523 35.4545H133.455Z" fill="#E23A22"/>
<path d="M20.5455 82H4.04545V35.4545H20.6818C25.3636 35.4545 29.3939 36.3864 32.7727 38.25C36.1515 40.0985 38.75 42.7576 40.5682 46.2273C42.4015 49.697 43.3182 53.8485 43.3182 58.6818C43.3182 63.5303 42.4015 67.697 40.5682 71.1818C38.75 74.6667 36.1364 77.3409 32.7273 79.2045C29.3333 81.0682 25.2727 82 20.5455 82ZM13.8864 73.5682H20.1364C23.0455 73.5682 25.4924 73.053 27.4773 72.0227C29.4773 70.9773 30.9773 69.3636 31.9773 67.1818C32.9924 64.9848 33.5 62.1515 33.5 58.6818C33.5 55.2424 32.9924 52.4318 31.9773 50.25C30.9773 48.0682 29.4848 46.4621 27.5 45.4318C25.5152 44.4015 23.0682 43.8864 20.1591 43.8864H13.8864V73.5682ZM50.608 82V35.4545H68.9716C72.4867 35.4545 75.4867 36.0833 77.9716 37.3409C80.4716 38.5833 82.3731 40.3485 83.6761 42.6364C84.9943 44.9091 85.6534 47.5833 85.6534 50.6591C85.6534 53.75 84.9867 56.4091 83.6534 58.6364C82.3201 60.8485 80.3883 62.5455 77.858 63.7273C75.3428 64.9091 72.2973 65.5 68.7216 65.5H56.4261V57.5909H67.1307C69.0095 57.5909 70.5701 57.3333 71.8125 56.8182C73.0549 56.303 73.9792 55.5303 74.5852 54.5C75.2064 53.4697 75.517 52.1894 75.517 50.6591C75.517 49.1136 75.2064 47.8106 74.5852 46.75C73.9792 45.6894 73.0473 44.8864 71.7898 44.3409C70.5473 43.7803 68.9792 43.5 67.0852 43.5H60.4489V82H50.608ZM75.7443 60.8182L87.3125 82H76.4489L65.1307 60.8182H75.7443ZM99.8452 44.1818V82H91.8494V44.1818H99.8452ZM115.591 35.4545L126.841 70.8182H127.273L138.546 35.4545H149.455L133.409 82H120.728L104.659 35.4545H115.591Z" fill="#FEECDD"/>
<path d="M171.045 82V35.4545H202.409V43.5682H180.886V54.6591H200.795V62.7727H180.886V73.8864H202.5V82H171.045Z" fill="#FEECDD"/>
<path d="M96 38.5C95.5917 38.5 95.2417 38.3833 94.95 38.15C94.6583 37.9167 94.4396 37.6104 94.2938 37.2313C93.7396 35.5979 93.0396 34.0667 92.1937 32.6375C91.3771 31.2083 90.225 29.5312 88.7375 27.6062C87.25 25.6812 86.0396 23.8438 85.1062 22.0938C84.2021 20.3438 83.75 18.2292 83.75 15.75C83.75 12.3375 84.9312 9.45 87.2937 7.0875C89.6854 4.69583 92.5875 3.5 96 3.5C99.4125 3.5 102.3 4.69583 104.663 7.0875C107.054 9.45 108.25 12.3375 108.25 15.75C108.25 18.4042 107.74 20.6208 106.719 22.4C105.727 24.15 104.575 25.8854 103.263 27.6062C101.688 29.7062 100.492 31.4562 99.675 32.8562C98.8875 34.2271 98.2313 35.6854 97.7063 37.2313C97.5604 37.6396 97.3271 37.9604 97.0063 38.1938C96.7146 38.3979 96.3792 38.5 96 38.5ZM96 20.125C97.225 20.125 98.2604 19.7021 99.1062 18.8562C99.9521 18.0104 100.375 16.975 100.375 15.75C100.375 14.525 99.9521 13.4896 99.1062 12.6437C98.2604 11.7979 97.225 11.375 96 11.375C94.775 11.375 93.7396 11.7979 92.8938 12.6437C92.0479 13.4896 91.625 14.525 91.625 15.75C91.625 16.975 92.0479 18.0104 92.8938 18.8562C93.7396 19.7021 94.775 20.125 96 20.125Z" fill="#E23A22"/>
</svg>
